%TF.GenerationSoftware,KiCad,Pcbnew,7.0.7*%
%TF.CreationDate,2023-11-02T18:32:29-06:00*%
%TF.ProjectId,BatteryMeter,42617474-6572-4794-9d65-7465722e6b69,rev?*%
%TF.SameCoordinates,Original*%
%TF.FileFunction,Legend,Top*%
%TF.FilePolarity,Positive*%
%FSLAX46Y46*%
G04 Gerber Fmt 4.6, Leading zero omitted, Abs format (unit mm)*
G04 Created by KiCad (PCBNEW 7.0.7) date 2023-11-02 18:32:29*
%MOMM*%
%LPD*%
G01*
G04 APERTURE LIST*
%ADD10C,0.300000*%
%ADD11C,0.100000*%
%ADD12C,0.150000*%
%ADD13C,0.120000*%
G04 APERTURE END LIST*
D10*
X133549171Y-101598796D02*
X133549171Y-100884510D01*
X133549171Y-100884510D02*
X135049171Y-100884510D01*
X133549171Y-103241653D02*
X135049171Y-103241653D01*
X134334885Y-103241653D02*
X134334885Y-104098796D01*
X133549171Y-104098796D02*
X135049171Y-104098796D01*
X134120600Y-105955939D02*
X134120600Y-107098797D01*
X134120600Y-108955939D02*
X134120600Y-110098797D01*
X133549171Y-109527368D02*
X134692028Y-109527368D01*
D11*
X159258095Y-50257419D02*
X159258095Y-51066942D01*
X159258095Y-51066942D02*
X159305714Y-51162180D01*
X159305714Y-51162180D02*
X159353333Y-51209800D01*
X159353333Y-51209800D02*
X159448571Y-51257419D01*
X159448571Y-51257419D02*
X159639047Y-51257419D01*
X159639047Y-51257419D02*
X159734285Y-51209800D01*
X159734285Y-51209800D02*
X159781904Y-51162180D01*
X159781904Y-51162180D02*
X159829523Y-51066942D01*
X159829523Y-51066942D02*
X159829523Y-50257419D01*
X160210476Y-50257419D02*
X160829523Y-50257419D01*
X160829523Y-50257419D02*
X160496190Y-50638371D01*
X160496190Y-50638371D02*
X160639047Y-50638371D01*
X160639047Y-50638371D02*
X160734285Y-50685990D01*
X160734285Y-50685990D02*
X160781904Y-50733609D01*
X160781904Y-50733609D02*
X160829523Y-50828847D01*
X160829523Y-50828847D02*
X160829523Y-51066942D01*
X160829523Y-51066942D02*
X160781904Y-51162180D01*
X160781904Y-51162180D02*
X160734285Y-51209800D01*
X160734285Y-51209800D02*
X160639047Y-51257419D01*
X160639047Y-51257419D02*
X160353333Y-51257419D01*
X160353333Y-51257419D02*
X160258095Y-51209800D01*
X160258095Y-51209800D02*
X160210476Y-51162180D01*
D12*
X173228095Y-67204819D02*
X173228095Y-68014342D01*
X173228095Y-68014342D02*
X173275714Y-68109580D01*
X173275714Y-68109580D02*
X173323333Y-68157200D01*
X173323333Y-68157200D02*
X173418571Y-68204819D01*
X173418571Y-68204819D02*
X173609047Y-68204819D01*
X173609047Y-68204819D02*
X173704285Y-68157200D01*
X173704285Y-68157200D02*
X173751904Y-68109580D01*
X173751904Y-68109580D02*
X173799523Y-68014342D01*
X173799523Y-68014342D02*
X173799523Y-67204819D01*
X174228095Y-67300057D02*
X174275714Y-67252438D01*
X174275714Y-67252438D02*
X174370952Y-67204819D01*
X174370952Y-67204819D02*
X174609047Y-67204819D01*
X174609047Y-67204819D02*
X174704285Y-67252438D01*
X174704285Y-67252438D02*
X174751904Y-67300057D01*
X174751904Y-67300057D02*
X174799523Y-67395295D01*
X174799523Y-67395295D02*
X174799523Y-67490533D01*
X174799523Y-67490533D02*
X174751904Y-67633390D01*
X174751904Y-67633390D02*
X174180476Y-68204819D01*
X174180476Y-68204819D02*
X174799523Y-68204819D01*
X173921009Y-95249047D02*
X173921009Y-94915714D01*
X174444819Y-94772857D02*
X174444819Y-95249047D01*
X174444819Y-95249047D02*
X173444819Y-95249047D01*
X173444819Y-95249047D02*
X173444819Y-94772857D01*
X174397200Y-94391904D02*
X174444819Y-94249047D01*
X174444819Y-94249047D02*
X174444819Y-94010952D01*
X174444819Y-94010952D02*
X174397200Y-93915714D01*
X174397200Y-93915714D02*
X174349580Y-93868095D01*
X174349580Y-93868095D02*
X174254342Y-93820476D01*
X174254342Y-93820476D02*
X174159104Y-93820476D01*
X174159104Y-93820476D02*
X174063866Y-93868095D01*
X174063866Y-93868095D02*
X174016247Y-93915714D01*
X174016247Y-93915714D02*
X173968628Y-94010952D01*
X173968628Y-94010952D02*
X173921009Y-94201428D01*
X173921009Y-94201428D02*
X173873390Y-94296666D01*
X173873390Y-94296666D02*
X173825771Y-94344285D01*
X173825771Y-94344285D02*
X173730533Y-94391904D01*
X173730533Y-94391904D02*
X173635295Y-94391904D01*
X173635295Y-94391904D02*
X173540057Y-94344285D01*
X173540057Y-94344285D02*
X173492438Y-94296666D01*
X173492438Y-94296666D02*
X173444819Y-94201428D01*
X173444819Y-94201428D02*
X173444819Y-93963333D01*
X173444819Y-93963333D02*
X173492438Y-93820476D01*
X174444819Y-93391904D02*
X173444819Y-93391904D01*
X173444819Y-93391904D02*
X173444819Y-93010952D01*
X173444819Y-93010952D02*
X173492438Y-92915714D01*
X173492438Y-92915714D02*
X173540057Y-92868095D01*
X173540057Y-92868095D02*
X173635295Y-92820476D01*
X173635295Y-92820476D02*
X173778152Y-92820476D01*
X173778152Y-92820476D02*
X173873390Y-92868095D01*
X173873390Y-92868095D02*
X173921009Y-92915714D01*
X173921009Y-92915714D02*
X173968628Y-93010952D01*
X173968628Y-93010952D02*
X173968628Y-93391904D01*
X173444819Y-92487142D02*
X173444819Y-91868095D01*
X173444819Y-91868095D02*
X173825771Y-92201428D01*
X173825771Y-92201428D02*
X173825771Y-92058571D01*
X173825771Y-92058571D02*
X173873390Y-91963333D01*
X173873390Y-91963333D02*
X173921009Y-91915714D01*
X173921009Y-91915714D02*
X174016247Y-91868095D01*
X174016247Y-91868095D02*
X174254342Y-91868095D01*
X174254342Y-91868095D02*
X174349580Y-91915714D01*
X174349580Y-91915714D02*
X174397200Y-91963333D01*
X174397200Y-91963333D02*
X174444819Y-92058571D01*
X174444819Y-92058571D02*
X174444819Y-92344285D01*
X174444819Y-92344285D02*
X174397200Y-92439523D01*
X174397200Y-92439523D02*
X174349580Y-92487142D01*
X173540057Y-91487142D02*
X173492438Y-91439523D01*
X173492438Y-91439523D02*
X173444819Y-91344285D01*
X173444819Y-91344285D02*
X173444819Y-91106190D01*
X173444819Y-91106190D02*
X173492438Y-91010952D01*
X173492438Y-91010952D02*
X173540057Y-90963333D01*
X173540057Y-90963333D02*
X173635295Y-90915714D01*
X173635295Y-90915714D02*
X173730533Y-90915714D01*
X173730533Y-90915714D02*
X173873390Y-90963333D01*
X173873390Y-90963333D02*
X174444819Y-91534761D01*
X174444819Y-91534761D02*
X174444819Y-90915714D01*
X174444819Y-89725237D02*
X173444819Y-89725237D01*
X173444819Y-89725237D02*
X173444819Y-89487142D01*
X173444819Y-89487142D02*
X173492438Y-89344285D01*
X173492438Y-89344285D02*
X173587676Y-89249047D01*
X173587676Y-89249047D02*
X173682914Y-89201428D01*
X173682914Y-89201428D02*
X173873390Y-89153809D01*
X173873390Y-89153809D02*
X174016247Y-89153809D01*
X174016247Y-89153809D02*
X174206723Y-89201428D01*
X174206723Y-89201428D02*
X174301961Y-89249047D01*
X174301961Y-89249047D02*
X174397200Y-89344285D01*
X174397200Y-89344285D02*
X174444819Y-89487142D01*
X174444819Y-89487142D02*
X174444819Y-89725237D01*
X174397200Y-88344285D02*
X174444819Y-88439523D01*
X174444819Y-88439523D02*
X174444819Y-88629999D01*
X174444819Y-88629999D02*
X174397200Y-88725237D01*
X174397200Y-88725237D02*
X174301961Y-88772856D01*
X174301961Y-88772856D02*
X173921009Y-88772856D01*
X173921009Y-88772856D02*
X173825771Y-88725237D01*
X173825771Y-88725237D02*
X173778152Y-88629999D01*
X173778152Y-88629999D02*
X173778152Y-88439523D01*
X173778152Y-88439523D02*
X173825771Y-88344285D01*
X173825771Y-88344285D02*
X173921009Y-88296666D01*
X173921009Y-88296666D02*
X174016247Y-88296666D01*
X174016247Y-88296666D02*
X174111485Y-88772856D01*
X173778152Y-87963332D02*
X174444819Y-87725237D01*
X174444819Y-87725237D02*
X173778152Y-87487142D01*
X174444819Y-87106189D02*
X173444819Y-87106189D01*
X174444819Y-86534761D02*
X173873390Y-86963332D01*
X173444819Y-86534761D02*
X174016247Y-87106189D01*
X174444819Y-86106189D02*
X173778152Y-86106189D01*
X173444819Y-86106189D02*
X173492438Y-86153808D01*
X173492438Y-86153808D02*
X173540057Y-86106189D01*
X173540057Y-86106189D02*
X173492438Y-86058570D01*
X173492438Y-86058570D02*
X173444819Y-86106189D01*
X173444819Y-86106189D02*
X173540057Y-86106189D01*
X173778152Y-85772856D02*
X173778152Y-85391904D01*
X173444819Y-85629999D02*
X174301961Y-85629999D01*
X174301961Y-85629999D02*
X174397200Y-85582380D01*
X174397200Y-85582380D02*
X174444819Y-85487142D01*
X174444819Y-85487142D02*
X174444819Y-85391904D01*
X173444819Y-85201427D02*
X174444819Y-84868094D01*
X174444819Y-84868094D02*
X173444819Y-84534761D01*
X174444819Y-83677618D02*
X174444819Y-84249046D01*
X174444819Y-83963332D02*
X173444819Y-83963332D01*
X173444819Y-83963332D02*
X173587676Y-84058570D01*
X173587676Y-84058570D02*
X173682914Y-84153808D01*
X173682914Y-84153808D02*
X173730533Y-84249046D01*
X174444819Y-82487141D02*
X173444819Y-82487141D01*
X173444819Y-82487141D02*
X173444819Y-82249046D01*
X173444819Y-82249046D02*
X173492438Y-82106189D01*
X173492438Y-82106189D02*
X173587676Y-82010951D01*
X173587676Y-82010951D02*
X173682914Y-81963332D01*
X173682914Y-81963332D02*
X173873390Y-81915713D01*
X173873390Y-81915713D02*
X174016247Y-81915713D01*
X174016247Y-81915713D02*
X174206723Y-81963332D01*
X174206723Y-81963332D02*
X174301961Y-82010951D01*
X174301961Y-82010951D02*
X174397200Y-82106189D01*
X174397200Y-82106189D02*
X174444819Y-82249046D01*
X174444819Y-82249046D02*
X174444819Y-82487141D01*
X174444819Y-81344284D02*
X174397200Y-81439522D01*
X174397200Y-81439522D02*
X174349580Y-81487141D01*
X174349580Y-81487141D02*
X174254342Y-81534760D01*
X174254342Y-81534760D02*
X173968628Y-81534760D01*
X173968628Y-81534760D02*
X173873390Y-81487141D01*
X173873390Y-81487141D02*
X173825771Y-81439522D01*
X173825771Y-81439522D02*
X173778152Y-81344284D01*
X173778152Y-81344284D02*
X173778152Y-81201427D01*
X173778152Y-81201427D02*
X173825771Y-81106189D01*
X173825771Y-81106189D02*
X173873390Y-81058570D01*
X173873390Y-81058570D02*
X173968628Y-81010951D01*
X173968628Y-81010951D02*
X174254342Y-81010951D01*
X174254342Y-81010951D02*
X174349580Y-81058570D01*
X174349580Y-81058570D02*
X174397200Y-81106189D01*
X174397200Y-81106189D02*
X174444819Y-81201427D01*
X174444819Y-81201427D02*
X174444819Y-81344284D01*
X174444819Y-80582379D02*
X173444819Y-80582379D01*
X173778152Y-80249046D02*
X173778152Y-79868094D01*
X173444819Y-80106189D02*
X174301961Y-80106189D01*
X174301961Y-80106189D02*
X174397200Y-80058570D01*
X174397200Y-80058570D02*
X174444819Y-79963332D01*
X174444819Y-79963332D02*
X174444819Y-79868094D01*
X182721316Y-99979366D02*
X182654649Y-99946033D01*
X182654649Y-99946033D02*
X182554649Y-99946033D01*
X182554649Y-99946033D02*
X182454649Y-99979366D01*
X182454649Y-99979366D02*
X182387983Y-100046033D01*
X182387983Y-100046033D02*
X182354649Y-100112700D01*
X182354649Y-100112700D02*
X182321316Y-100246033D01*
X182321316Y-100246033D02*
X182321316Y-100346033D01*
X182321316Y-100346033D02*
X182354649Y-100479366D01*
X182354649Y-100479366D02*
X182387983Y-100546033D01*
X182387983Y-100546033D02*
X182454649Y-100612700D01*
X182454649Y-100612700D02*
X182554649Y-100646033D01*
X182554649Y-100646033D02*
X182621316Y-100646033D01*
X182621316Y-100646033D02*
X182721316Y-100612700D01*
X182721316Y-100612700D02*
X182754649Y-100579366D01*
X182754649Y-100579366D02*
X182754649Y-100346033D01*
X182754649Y-100346033D02*
X182621316Y-100346033D01*
X183054649Y-100646033D02*
X183054649Y-99946033D01*
X183054649Y-99946033D02*
X183321316Y-99946033D01*
X183321316Y-99946033D02*
X183387983Y-99979366D01*
X183387983Y-99979366D02*
X183421316Y-100012700D01*
X183421316Y-100012700D02*
X183454649Y-100079366D01*
X183454649Y-100079366D02*
X183454649Y-100179366D01*
X183454649Y-100179366D02*
X183421316Y-100246033D01*
X183421316Y-100246033D02*
X183387983Y-100279366D01*
X183387983Y-100279366D02*
X183321316Y-100312700D01*
X183321316Y-100312700D02*
X183054649Y-100312700D01*
X183754649Y-100646033D02*
X183754649Y-99946033D01*
X184221316Y-99946033D02*
X184354649Y-99946033D01*
X184354649Y-99946033D02*
X184421316Y-99979366D01*
X184421316Y-99979366D02*
X184487982Y-100046033D01*
X184487982Y-100046033D02*
X184521316Y-100179366D01*
X184521316Y-100179366D02*
X184521316Y-100412700D01*
X184521316Y-100412700D02*
X184487982Y-100546033D01*
X184487982Y-100546033D02*
X184421316Y-100612700D01*
X184421316Y-100612700D02*
X184354649Y-100646033D01*
X184354649Y-100646033D02*
X184221316Y-100646033D01*
X184221316Y-100646033D02*
X184154649Y-100612700D01*
X184154649Y-100612700D02*
X184087982Y-100546033D01*
X184087982Y-100546033D02*
X184054649Y-100412700D01*
X184054649Y-100412700D02*
X184054649Y-100179366D01*
X184054649Y-100179366D02*
X184087982Y-100046033D01*
X184087982Y-100046033D02*
X184154649Y-99979366D01*
X184154649Y-99979366D02*
X184221316Y-99946033D01*
X184787982Y-100012700D02*
X184821315Y-99979366D01*
X184821315Y-99979366D02*
X184887982Y-99946033D01*
X184887982Y-99946033D02*
X185054649Y-99946033D01*
X185054649Y-99946033D02*
X185121315Y-99979366D01*
X185121315Y-99979366D02*
X185154649Y-100012700D01*
X185154649Y-100012700D02*
X185187982Y-100079366D01*
X185187982Y-100079366D02*
X185187982Y-100146033D01*
X185187982Y-100146033D02*
X185154649Y-100246033D01*
X185154649Y-100246033D02*
X184754649Y-100646033D01*
X184754649Y-100646033D02*
X185187982Y-100646033D01*
X162725350Y-77086033D02*
X162958684Y-77786033D01*
X162958684Y-77786033D02*
X163192017Y-77086033D01*
X163425350Y-77786033D02*
X163425350Y-77086033D01*
X163425350Y-77086033D02*
X163825350Y-77786033D01*
X163825350Y-77786033D02*
X163825350Y-77086033D01*
X164658683Y-77052700D02*
X164058683Y-77952700D01*
X165258683Y-77119366D02*
X165192016Y-77086033D01*
X165192016Y-77086033D02*
X165092016Y-77086033D01*
X165092016Y-77086033D02*
X164992016Y-77119366D01*
X164992016Y-77119366D02*
X164925350Y-77186033D01*
X164925350Y-77186033D02*
X164892016Y-77252700D01*
X164892016Y-77252700D02*
X164858683Y-77386033D01*
X164858683Y-77386033D02*
X164858683Y-77486033D01*
X164858683Y-77486033D02*
X164892016Y-77619366D01*
X164892016Y-77619366D02*
X164925350Y-77686033D01*
X164925350Y-77686033D02*
X164992016Y-77752700D01*
X164992016Y-77752700D02*
X165092016Y-77786033D01*
X165092016Y-77786033D02*
X165158683Y-77786033D01*
X165158683Y-77786033D02*
X165258683Y-77752700D01*
X165258683Y-77752700D02*
X165292016Y-77719366D01*
X165292016Y-77719366D02*
X165292016Y-77486033D01*
X165292016Y-77486033D02*
X165158683Y-77486033D01*
X165592016Y-77786033D02*
X165592016Y-77086033D01*
X165592016Y-77086033D02*
X165858683Y-77086033D01*
X165858683Y-77086033D02*
X165925350Y-77119366D01*
X165925350Y-77119366D02*
X165958683Y-77152700D01*
X165958683Y-77152700D02*
X165992016Y-77219366D01*
X165992016Y-77219366D02*
X165992016Y-77319366D01*
X165992016Y-77319366D02*
X165958683Y-77386033D01*
X165958683Y-77386033D02*
X165925350Y-77419366D01*
X165925350Y-77419366D02*
X165858683Y-77452700D01*
X165858683Y-77452700D02*
X165592016Y-77452700D01*
X166292016Y-77786033D02*
X166292016Y-77086033D01*
X166758683Y-77086033D02*
X166892016Y-77086033D01*
X166892016Y-77086033D02*
X166958683Y-77119366D01*
X166958683Y-77119366D02*
X167025349Y-77186033D01*
X167025349Y-77186033D02*
X167058683Y-77319366D01*
X167058683Y-77319366D02*
X167058683Y-77552700D01*
X167058683Y-77552700D02*
X167025349Y-77686033D01*
X167025349Y-77686033D02*
X166958683Y-77752700D01*
X166958683Y-77752700D02*
X166892016Y-77786033D01*
X166892016Y-77786033D02*
X166758683Y-77786033D01*
X166758683Y-77786033D02*
X166692016Y-77752700D01*
X166692016Y-77752700D02*
X166625349Y-77686033D01*
X166625349Y-77686033D02*
X166592016Y-77552700D01*
X166592016Y-77552700D02*
X166592016Y-77319366D01*
X166592016Y-77319366D02*
X166625349Y-77186033D01*
X166625349Y-77186033D02*
X166692016Y-77119366D01*
X166692016Y-77119366D02*
X166758683Y-77086033D01*
X167292016Y-77086033D02*
X167725349Y-77086033D01*
X167725349Y-77086033D02*
X167492016Y-77352700D01*
X167492016Y-77352700D02*
X167592016Y-77352700D01*
X167592016Y-77352700D02*
X167658682Y-77386033D01*
X167658682Y-77386033D02*
X167692016Y-77419366D01*
X167692016Y-77419366D02*
X167725349Y-77486033D01*
X167725349Y-77486033D02*
X167725349Y-77652700D01*
X167725349Y-77652700D02*
X167692016Y-77719366D01*
X167692016Y-77719366D02*
X167658682Y-77752700D01*
X167658682Y-77752700D02*
X167592016Y-77786033D01*
X167592016Y-77786033D02*
X167392016Y-77786033D01*
X167392016Y-77786033D02*
X167325349Y-77752700D01*
X167325349Y-77752700D02*
X167292016Y-77719366D01*
X168058683Y-77786033D02*
X168192016Y-77786033D01*
X168192016Y-77786033D02*
X168258683Y-77752700D01*
X168258683Y-77752700D02*
X168292016Y-77719366D01*
X168292016Y-77719366D02*
X168358683Y-77619366D01*
X168358683Y-77619366D02*
X168392016Y-77486033D01*
X168392016Y-77486033D02*
X168392016Y-77219366D01*
X168392016Y-77219366D02*
X168358683Y-77152700D01*
X168358683Y-77152700D02*
X168325349Y-77119366D01*
X168325349Y-77119366D02*
X168258683Y-77086033D01*
X168258683Y-77086033D02*
X168125349Y-77086033D01*
X168125349Y-77086033D02*
X168058683Y-77119366D01*
X168058683Y-77119366D02*
X168025349Y-77152700D01*
X168025349Y-77152700D02*
X167992016Y-77219366D01*
X167992016Y-77219366D02*
X167992016Y-77386033D01*
X167992016Y-77386033D02*
X168025349Y-77452700D01*
X168025349Y-77452700D02*
X168058683Y-77486033D01*
X168058683Y-77486033D02*
X168125349Y-77519366D01*
X168125349Y-77519366D02*
X168258683Y-77519366D01*
X168258683Y-77519366D02*
X168325349Y-77486033D01*
X168325349Y-77486033D02*
X168358683Y-77452700D01*
X168358683Y-77452700D02*
X168392016Y-77386033D01*
X163192017Y-102519366D02*
X163125350Y-102486033D01*
X163125350Y-102486033D02*
X163025350Y-102486033D01*
X163025350Y-102486033D02*
X162925350Y-102519366D01*
X162925350Y-102519366D02*
X162858684Y-102586033D01*
X162858684Y-102586033D02*
X162825350Y-102652700D01*
X162825350Y-102652700D02*
X162792017Y-102786033D01*
X162792017Y-102786033D02*
X162792017Y-102886033D01*
X162792017Y-102886033D02*
X162825350Y-103019366D01*
X162825350Y-103019366D02*
X162858684Y-103086033D01*
X162858684Y-103086033D02*
X162925350Y-103152700D01*
X162925350Y-103152700D02*
X163025350Y-103186033D01*
X163025350Y-103186033D02*
X163092017Y-103186033D01*
X163092017Y-103186033D02*
X163192017Y-103152700D01*
X163192017Y-103152700D02*
X163225350Y-103119366D01*
X163225350Y-103119366D02*
X163225350Y-102886033D01*
X163225350Y-102886033D02*
X163092017Y-102886033D01*
X163525350Y-103186033D02*
X163525350Y-102486033D01*
X163525350Y-102486033D02*
X163792017Y-102486033D01*
X163792017Y-102486033D02*
X163858684Y-102519366D01*
X163858684Y-102519366D02*
X163892017Y-102552700D01*
X163892017Y-102552700D02*
X163925350Y-102619366D01*
X163925350Y-102619366D02*
X163925350Y-102719366D01*
X163925350Y-102719366D02*
X163892017Y-102786033D01*
X163892017Y-102786033D02*
X163858684Y-102819366D01*
X163858684Y-102819366D02*
X163792017Y-102852700D01*
X163792017Y-102852700D02*
X163525350Y-102852700D01*
X164225350Y-103186033D02*
X164225350Y-102486033D01*
X164692017Y-102486033D02*
X164825350Y-102486033D01*
X164825350Y-102486033D02*
X164892017Y-102519366D01*
X164892017Y-102519366D02*
X164958683Y-102586033D01*
X164958683Y-102586033D02*
X164992017Y-102719366D01*
X164992017Y-102719366D02*
X164992017Y-102952700D01*
X164992017Y-102952700D02*
X164958683Y-103086033D01*
X164958683Y-103086033D02*
X164892017Y-103152700D01*
X164892017Y-103152700D02*
X164825350Y-103186033D01*
X164825350Y-103186033D02*
X164692017Y-103186033D01*
X164692017Y-103186033D02*
X164625350Y-103152700D01*
X164625350Y-103152700D02*
X164558683Y-103086033D01*
X164558683Y-103086033D02*
X164525350Y-102952700D01*
X164525350Y-102952700D02*
X164525350Y-102719366D01*
X164525350Y-102719366D02*
X164558683Y-102586033D01*
X164558683Y-102586033D02*
X164625350Y-102519366D01*
X164625350Y-102519366D02*
X164692017Y-102486033D01*
X165658683Y-103186033D02*
X165258683Y-103186033D01*
X165458683Y-103186033D02*
X165458683Y-102486033D01*
X165458683Y-102486033D02*
X165392016Y-102586033D01*
X165392016Y-102586033D02*
X165325350Y-102652700D01*
X165325350Y-102652700D02*
X165258683Y-102686033D01*
X165892017Y-102486033D02*
X166325350Y-102486033D01*
X166325350Y-102486033D02*
X166092017Y-102752700D01*
X166092017Y-102752700D02*
X166192017Y-102752700D01*
X166192017Y-102752700D02*
X166258683Y-102786033D01*
X166258683Y-102786033D02*
X166292017Y-102819366D01*
X166292017Y-102819366D02*
X166325350Y-102886033D01*
X166325350Y-102886033D02*
X166325350Y-103052700D01*
X166325350Y-103052700D02*
X166292017Y-103119366D01*
X166292017Y-103119366D02*
X166258683Y-103152700D01*
X166258683Y-103152700D02*
X166192017Y-103186033D01*
X166192017Y-103186033D02*
X165992017Y-103186033D01*
X165992017Y-103186033D02*
X165925350Y-103152700D01*
X165925350Y-103152700D02*
X165892017Y-103119366D01*
X167125350Y-102452700D02*
X166525350Y-103352700D01*
X167358683Y-103186033D02*
X167358683Y-102486033D01*
X167358683Y-102486033D02*
X167592017Y-102986033D01*
X167592017Y-102986033D02*
X167825350Y-102486033D01*
X167825350Y-102486033D02*
X167825350Y-103186033D01*
X168058683Y-102486033D02*
X168458683Y-102486033D01*
X168258683Y-103186033D02*
X168258683Y-102486033D01*
X169092016Y-103119366D02*
X169058683Y-103152700D01*
X169058683Y-103152700D02*
X168958683Y-103186033D01*
X168958683Y-103186033D02*
X168892016Y-103186033D01*
X168892016Y-103186033D02*
X168792016Y-103152700D01*
X168792016Y-103152700D02*
X168725350Y-103086033D01*
X168725350Y-103086033D02*
X168692016Y-103019366D01*
X168692016Y-103019366D02*
X168658683Y-102886033D01*
X168658683Y-102886033D02*
X168658683Y-102786033D01*
X168658683Y-102786033D02*
X168692016Y-102652700D01*
X168692016Y-102652700D02*
X168725350Y-102586033D01*
X168725350Y-102586033D02*
X168792016Y-102519366D01*
X168792016Y-102519366D02*
X168892016Y-102486033D01*
X168892016Y-102486033D02*
X168958683Y-102486033D01*
X168958683Y-102486033D02*
X169058683Y-102519366D01*
X169058683Y-102519366D02*
X169092016Y-102552700D01*
X169392016Y-103186033D02*
X169392016Y-102486033D01*
X169792016Y-103186033D02*
X169492016Y-102786033D01*
X169792016Y-102486033D02*
X169392016Y-102886033D01*
X182054649Y-74579366D02*
X181987982Y-74546033D01*
X181987982Y-74546033D02*
X181887982Y-74546033D01*
X181887982Y-74546033D02*
X181787982Y-74579366D01*
X181787982Y-74579366D02*
X181721316Y-74646033D01*
X181721316Y-74646033D02*
X181687982Y-74712700D01*
X181687982Y-74712700D02*
X181654649Y-74846033D01*
X181654649Y-74846033D02*
X181654649Y-74946033D01*
X181654649Y-74946033D02*
X181687982Y-75079366D01*
X181687982Y-75079366D02*
X181721316Y-75146033D01*
X181721316Y-75146033D02*
X181787982Y-75212700D01*
X181787982Y-75212700D02*
X181887982Y-75246033D01*
X181887982Y-75246033D02*
X181954649Y-75246033D01*
X181954649Y-75246033D02*
X182054649Y-75212700D01*
X182054649Y-75212700D02*
X182087982Y-75179366D01*
X182087982Y-75179366D02*
X182087982Y-74946033D01*
X182087982Y-74946033D02*
X181954649Y-74946033D01*
X182387982Y-75246033D02*
X182387982Y-74546033D01*
X182387982Y-74546033D02*
X182654649Y-74546033D01*
X182654649Y-74546033D02*
X182721316Y-74579366D01*
X182721316Y-74579366D02*
X182754649Y-74612700D01*
X182754649Y-74612700D02*
X182787982Y-74679366D01*
X182787982Y-74679366D02*
X182787982Y-74779366D01*
X182787982Y-74779366D02*
X182754649Y-74846033D01*
X182754649Y-74846033D02*
X182721316Y-74879366D01*
X182721316Y-74879366D02*
X182654649Y-74912700D01*
X182654649Y-74912700D02*
X182387982Y-74912700D01*
X183087982Y-75246033D02*
X183087982Y-74546033D01*
X183554649Y-74546033D02*
X183687982Y-74546033D01*
X183687982Y-74546033D02*
X183754649Y-74579366D01*
X183754649Y-74579366D02*
X183821315Y-74646033D01*
X183821315Y-74646033D02*
X183854649Y-74779366D01*
X183854649Y-74779366D02*
X183854649Y-75012700D01*
X183854649Y-75012700D02*
X183821315Y-75146033D01*
X183821315Y-75146033D02*
X183754649Y-75212700D01*
X183754649Y-75212700D02*
X183687982Y-75246033D01*
X183687982Y-75246033D02*
X183554649Y-75246033D01*
X183554649Y-75246033D02*
X183487982Y-75212700D01*
X183487982Y-75212700D02*
X183421315Y-75146033D01*
X183421315Y-75146033D02*
X183387982Y-75012700D01*
X183387982Y-75012700D02*
X183387982Y-74779366D01*
X183387982Y-74779366D02*
X183421315Y-74646033D01*
X183421315Y-74646033D02*
X183487982Y-74579366D01*
X183487982Y-74579366D02*
X183554649Y-74546033D01*
X184121315Y-74612700D02*
X184154648Y-74579366D01*
X184154648Y-74579366D02*
X184221315Y-74546033D01*
X184221315Y-74546033D02*
X184387982Y-74546033D01*
X184387982Y-74546033D02*
X184454648Y-74579366D01*
X184454648Y-74579366D02*
X184487982Y-74612700D01*
X184487982Y-74612700D02*
X184521315Y-74679366D01*
X184521315Y-74679366D02*
X184521315Y-74746033D01*
X184521315Y-74746033D02*
X184487982Y-74846033D01*
X184487982Y-74846033D02*
X184087982Y-75246033D01*
X184087982Y-75246033D02*
X184521315Y-75246033D01*
X184787982Y-74612700D02*
X184821315Y-74579366D01*
X184821315Y-74579366D02*
X184887982Y-74546033D01*
X184887982Y-74546033D02*
X185054649Y-74546033D01*
X185054649Y-74546033D02*
X185121315Y-74579366D01*
X185121315Y-74579366D02*
X185154649Y-74612700D01*
X185154649Y-74612700D02*
X185187982Y-74679366D01*
X185187982Y-74679366D02*
X185187982Y-74746033D01*
X185187982Y-74746033D02*
X185154649Y-74846033D01*
X185154649Y-74846033D02*
X184754649Y-75246033D01*
X184754649Y-75246033D02*
X185187982Y-75246033D01*
X163420588Y-104912438D02*
X163325350Y-104864819D01*
X163325350Y-104864819D02*
X163182493Y-104864819D01*
X163182493Y-104864819D02*
X163039636Y-104912438D01*
X163039636Y-104912438D02*
X162944398Y-105007676D01*
X162944398Y-105007676D02*
X162896779Y-105102914D01*
X162896779Y-105102914D02*
X162849160Y-105293390D01*
X162849160Y-105293390D02*
X162849160Y-105436247D01*
X162849160Y-105436247D02*
X162896779Y-105626723D01*
X162896779Y-105626723D02*
X162944398Y-105721961D01*
X162944398Y-105721961D02*
X163039636Y-105817200D01*
X163039636Y-105817200D02*
X163182493Y-105864819D01*
X163182493Y-105864819D02*
X163277731Y-105864819D01*
X163277731Y-105864819D02*
X163420588Y-105817200D01*
X163420588Y-105817200D02*
X163468207Y-105769580D01*
X163468207Y-105769580D02*
X163468207Y-105436247D01*
X163468207Y-105436247D02*
X163277731Y-105436247D01*
X163896779Y-105864819D02*
X163896779Y-104864819D01*
X163896779Y-104864819D02*
X164468207Y-105864819D01*
X164468207Y-105864819D02*
X164468207Y-104864819D01*
X164944398Y-105864819D02*
X164944398Y-104864819D01*
X164944398Y-104864819D02*
X165182493Y-104864819D01*
X165182493Y-104864819D02*
X165325350Y-104912438D01*
X165325350Y-104912438D02*
X165420588Y-105007676D01*
X165420588Y-105007676D02*
X165468207Y-105102914D01*
X165468207Y-105102914D02*
X165515826Y-105293390D01*
X165515826Y-105293390D02*
X165515826Y-105436247D01*
X165515826Y-105436247D02*
X165468207Y-105626723D01*
X165468207Y-105626723D02*
X165420588Y-105721961D01*
X165420588Y-105721961D02*
X165325350Y-105817200D01*
X165325350Y-105817200D02*
X165182493Y-105864819D01*
X165182493Y-105864819D02*
X164944398Y-105864819D01*
X163192017Y-84739366D02*
X163125350Y-84706033D01*
X163125350Y-84706033D02*
X163025350Y-84706033D01*
X163025350Y-84706033D02*
X162925350Y-84739366D01*
X162925350Y-84739366D02*
X162858684Y-84806033D01*
X162858684Y-84806033D02*
X162825350Y-84872700D01*
X162825350Y-84872700D02*
X162792017Y-85006033D01*
X162792017Y-85006033D02*
X162792017Y-85106033D01*
X162792017Y-85106033D02*
X162825350Y-85239366D01*
X162825350Y-85239366D02*
X162858684Y-85306033D01*
X162858684Y-85306033D02*
X162925350Y-85372700D01*
X162925350Y-85372700D02*
X163025350Y-85406033D01*
X163025350Y-85406033D02*
X163092017Y-85406033D01*
X163092017Y-85406033D02*
X163192017Y-85372700D01*
X163192017Y-85372700D02*
X163225350Y-85339366D01*
X163225350Y-85339366D02*
X163225350Y-85106033D01*
X163225350Y-85106033D02*
X163092017Y-85106033D01*
X163525350Y-85406033D02*
X163525350Y-84706033D01*
X163525350Y-84706033D02*
X163792017Y-84706033D01*
X163792017Y-84706033D02*
X163858684Y-84739366D01*
X163858684Y-84739366D02*
X163892017Y-84772700D01*
X163892017Y-84772700D02*
X163925350Y-84839366D01*
X163925350Y-84839366D02*
X163925350Y-84939366D01*
X163925350Y-84939366D02*
X163892017Y-85006033D01*
X163892017Y-85006033D02*
X163858684Y-85039366D01*
X163858684Y-85039366D02*
X163792017Y-85072700D01*
X163792017Y-85072700D02*
X163525350Y-85072700D01*
X164225350Y-85406033D02*
X164225350Y-84706033D01*
X164692017Y-84706033D02*
X164825350Y-84706033D01*
X164825350Y-84706033D02*
X164892017Y-84739366D01*
X164892017Y-84739366D02*
X164958683Y-84806033D01*
X164958683Y-84806033D02*
X164992017Y-84939366D01*
X164992017Y-84939366D02*
X164992017Y-85172700D01*
X164992017Y-85172700D02*
X164958683Y-85306033D01*
X164958683Y-85306033D02*
X164892017Y-85372700D01*
X164892017Y-85372700D02*
X164825350Y-85406033D01*
X164825350Y-85406033D02*
X164692017Y-85406033D01*
X164692017Y-85406033D02*
X164625350Y-85372700D01*
X164625350Y-85372700D02*
X164558683Y-85306033D01*
X164558683Y-85306033D02*
X164525350Y-85172700D01*
X164525350Y-85172700D02*
X164525350Y-84939366D01*
X164525350Y-84939366D02*
X164558683Y-84806033D01*
X164558683Y-84806033D02*
X164625350Y-84739366D01*
X164625350Y-84739366D02*
X164692017Y-84706033D01*
X165225350Y-84706033D02*
X165658683Y-84706033D01*
X165658683Y-84706033D02*
X165425350Y-84972700D01*
X165425350Y-84972700D02*
X165525350Y-84972700D01*
X165525350Y-84972700D02*
X165592016Y-85006033D01*
X165592016Y-85006033D02*
X165625350Y-85039366D01*
X165625350Y-85039366D02*
X165658683Y-85106033D01*
X165658683Y-85106033D02*
X165658683Y-85272700D01*
X165658683Y-85272700D02*
X165625350Y-85339366D01*
X165625350Y-85339366D02*
X165592016Y-85372700D01*
X165592016Y-85372700D02*
X165525350Y-85406033D01*
X165525350Y-85406033D02*
X165325350Y-85406033D01*
X165325350Y-85406033D02*
X165258683Y-85372700D01*
X165258683Y-85372700D02*
X165225350Y-85339366D01*
X165925350Y-84772700D02*
X165958683Y-84739366D01*
X165958683Y-84739366D02*
X166025350Y-84706033D01*
X166025350Y-84706033D02*
X166192017Y-84706033D01*
X166192017Y-84706033D02*
X166258683Y-84739366D01*
X166258683Y-84739366D02*
X166292017Y-84772700D01*
X166292017Y-84772700D02*
X166325350Y-84839366D01*
X166325350Y-84839366D02*
X166325350Y-84906033D01*
X166325350Y-84906033D02*
X166292017Y-85006033D01*
X166292017Y-85006033D02*
X165892017Y-85406033D01*
X165892017Y-85406033D02*
X166325350Y-85406033D01*
X178687983Y-77119366D02*
X178621316Y-77086033D01*
X178621316Y-77086033D02*
X178521316Y-77086033D01*
X178521316Y-77086033D02*
X178421316Y-77119366D01*
X178421316Y-77119366D02*
X178354650Y-77186033D01*
X178354650Y-77186033D02*
X178321316Y-77252700D01*
X178321316Y-77252700D02*
X178287983Y-77386033D01*
X178287983Y-77386033D02*
X178287983Y-77486033D01*
X178287983Y-77486033D02*
X178321316Y-77619366D01*
X178321316Y-77619366D02*
X178354650Y-77686033D01*
X178354650Y-77686033D02*
X178421316Y-77752700D01*
X178421316Y-77752700D02*
X178521316Y-77786033D01*
X178521316Y-77786033D02*
X178587983Y-77786033D01*
X178587983Y-77786033D02*
X178687983Y-77752700D01*
X178687983Y-77752700D02*
X178721316Y-77719366D01*
X178721316Y-77719366D02*
X178721316Y-77486033D01*
X178721316Y-77486033D02*
X178587983Y-77486033D01*
X179021316Y-77786033D02*
X179021316Y-77086033D01*
X179021316Y-77086033D02*
X179287983Y-77086033D01*
X179287983Y-77086033D02*
X179354650Y-77119366D01*
X179354650Y-77119366D02*
X179387983Y-77152700D01*
X179387983Y-77152700D02*
X179421316Y-77219366D01*
X179421316Y-77219366D02*
X179421316Y-77319366D01*
X179421316Y-77319366D02*
X179387983Y-77386033D01*
X179387983Y-77386033D02*
X179354650Y-77419366D01*
X179354650Y-77419366D02*
X179287983Y-77452700D01*
X179287983Y-77452700D02*
X179021316Y-77452700D01*
X179721316Y-77786033D02*
X179721316Y-77086033D01*
X180187983Y-77086033D02*
X180321316Y-77086033D01*
X180321316Y-77086033D02*
X180387983Y-77119366D01*
X180387983Y-77119366D02*
X180454649Y-77186033D01*
X180454649Y-77186033D02*
X180487983Y-77319366D01*
X180487983Y-77319366D02*
X180487983Y-77552700D01*
X180487983Y-77552700D02*
X180454649Y-77686033D01*
X180454649Y-77686033D02*
X180387983Y-77752700D01*
X180387983Y-77752700D02*
X180321316Y-77786033D01*
X180321316Y-77786033D02*
X180187983Y-77786033D01*
X180187983Y-77786033D02*
X180121316Y-77752700D01*
X180121316Y-77752700D02*
X180054649Y-77686033D01*
X180054649Y-77686033D02*
X180021316Y-77552700D01*
X180021316Y-77552700D02*
X180021316Y-77319366D01*
X180021316Y-77319366D02*
X180054649Y-77186033D01*
X180054649Y-77186033D02*
X180121316Y-77119366D01*
X180121316Y-77119366D02*
X180187983Y-77086033D01*
X181154649Y-77786033D02*
X180754649Y-77786033D01*
X180954649Y-77786033D02*
X180954649Y-77086033D01*
X180954649Y-77086033D02*
X180887982Y-77186033D01*
X180887982Y-77186033D02*
X180821316Y-77252700D01*
X180821316Y-77252700D02*
X180754649Y-77286033D01*
X181954649Y-77052700D02*
X181354649Y-77952700D01*
X182187982Y-77086033D02*
X182187982Y-77652700D01*
X182187982Y-77652700D02*
X182221316Y-77719366D01*
X182221316Y-77719366D02*
X182254649Y-77752700D01*
X182254649Y-77752700D02*
X182321316Y-77786033D01*
X182321316Y-77786033D02*
X182454649Y-77786033D01*
X182454649Y-77786033D02*
X182521316Y-77752700D01*
X182521316Y-77752700D02*
X182554649Y-77719366D01*
X182554649Y-77719366D02*
X182587982Y-77652700D01*
X182587982Y-77652700D02*
X182587982Y-77086033D01*
X183054649Y-77086033D02*
X183121315Y-77086033D01*
X183121315Y-77086033D02*
X183187982Y-77119366D01*
X183187982Y-77119366D02*
X183221315Y-77152700D01*
X183221315Y-77152700D02*
X183254649Y-77219366D01*
X183254649Y-77219366D02*
X183287982Y-77352700D01*
X183287982Y-77352700D02*
X183287982Y-77519366D01*
X183287982Y-77519366D02*
X183254649Y-77652700D01*
X183254649Y-77652700D02*
X183221315Y-77719366D01*
X183221315Y-77719366D02*
X183187982Y-77752700D01*
X183187982Y-77752700D02*
X183121315Y-77786033D01*
X183121315Y-77786033D02*
X183054649Y-77786033D01*
X183054649Y-77786033D02*
X182987982Y-77752700D01*
X182987982Y-77752700D02*
X182954649Y-77719366D01*
X182954649Y-77719366D02*
X182921315Y-77652700D01*
X182921315Y-77652700D02*
X182887982Y-77519366D01*
X182887982Y-77519366D02*
X182887982Y-77352700D01*
X182887982Y-77352700D02*
X182921315Y-77219366D01*
X182921315Y-77219366D02*
X182954649Y-77152700D01*
X182954649Y-77152700D02*
X182987982Y-77119366D01*
X182987982Y-77119366D02*
X183054649Y-77086033D01*
X183487982Y-77086033D02*
X183887982Y-77086033D01*
X183687982Y-77786033D02*
X183687982Y-77086033D01*
X184054649Y-77086033D02*
X184521315Y-77786033D01*
X184521315Y-77086033D02*
X184054649Y-77786033D01*
X184787982Y-77786033D02*
X184787982Y-77086033D01*
X184787982Y-77086033D02*
X184954649Y-77086033D01*
X184954649Y-77086033D02*
X185054649Y-77119366D01*
X185054649Y-77119366D02*
X185121316Y-77186033D01*
X185121316Y-77186033D02*
X185154649Y-77252700D01*
X185154649Y-77252700D02*
X185187982Y-77386033D01*
X185187982Y-77386033D02*
X185187982Y-77486033D01*
X185187982Y-77486033D02*
X185154649Y-77619366D01*
X185154649Y-77619366D02*
X185121316Y-77686033D01*
X185121316Y-77686033D02*
X185054649Y-77752700D01*
X185054649Y-77752700D02*
X184954649Y-77786033D01*
X184954649Y-77786033D02*
X184787982Y-77786033D01*
X162725350Y-107566033D02*
X162958684Y-108266033D01*
X162958684Y-108266033D02*
X163192017Y-107566033D01*
X163425350Y-108266033D02*
X163425350Y-107566033D01*
X163758683Y-108266033D02*
X163758683Y-107566033D01*
X163758683Y-107566033D02*
X164158683Y-108266033D01*
X164158683Y-108266033D02*
X164158683Y-107566033D01*
X182702268Y-107404819D02*
X183321315Y-107404819D01*
X183321315Y-107404819D02*
X182987982Y-107785771D01*
X182987982Y-107785771D02*
X183130839Y-107785771D01*
X183130839Y-107785771D02*
X183226077Y-107833390D01*
X183226077Y-107833390D02*
X183273696Y-107881009D01*
X183273696Y-107881009D02*
X183321315Y-107976247D01*
X183321315Y-107976247D02*
X183321315Y-108214342D01*
X183321315Y-108214342D02*
X183273696Y-108309580D01*
X183273696Y-108309580D02*
X183226077Y-108357200D01*
X183226077Y-108357200D02*
X183130839Y-108404819D01*
X183130839Y-108404819D02*
X182845125Y-108404819D01*
X182845125Y-108404819D02*
X182749887Y-108357200D01*
X182749887Y-108357200D02*
X182702268Y-108309580D01*
X183607030Y-107404819D02*
X183940363Y-108404819D01*
X183940363Y-108404819D02*
X184273696Y-107404819D01*
X184511792Y-107404819D02*
X185130839Y-107404819D01*
X185130839Y-107404819D02*
X184797506Y-107785771D01*
X184797506Y-107785771D02*
X184940363Y-107785771D01*
X184940363Y-107785771D02*
X185035601Y-107833390D01*
X185035601Y-107833390D02*
X185083220Y-107881009D01*
X185083220Y-107881009D02*
X185130839Y-107976247D01*
X185130839Y-107976247D02*
X185130839Y-108214342D01*
X185130839Y-108214342D02*
X185083220Y-108309580D01*
X185083220Y-108309580D02*
X185035601Y-108357200D01*
X185035601Y-108357200D02*
X184940363Y-108404819D01*
X184940363Y-108404819D02*
X184654649Y-108404819D01*
X184654649Y-108404819D02*
X184559411Y-108357200D01*
X184559411Y-108357200D02*
X184511792Y-108309580D01*
X178554650Y-102519366D02*
X178487983Y-102486033D01*
X178487983Y-102486033D02*
X178387983Y-102486033D01*
X178387983Y-102486033D02*
X178287983Y-102519366D01*
X178287983Y-102519366D02*
X178221317Y-102586033D01*
X178221317Y-102586033D02*
X178187983Y-102652700D01*
X178187983Y-102652700D02*
X178154650Y-102786033D01*
X178154650Y-102786033D02*
X178154650Y-102886033D01*
X178154650Y-102886033D02*
X178187983Y-103019366D01*
X178187983Y-103019366D02*
X178221317Y-103086033D01*
X178221317Y-103086033D02*
X178287983Y-103152700D01*
X178287983Y-103152700D02*
X178387983Y-103186033D01*
X178387983Y-103186033D02*
X178454650Y-103186033D01*
X178454650Y-103186033D02*
X178554650Y-103152700D01*
X178554650Y-103152700D02*
X178587983Y-103119366D01*
X178587983Y-103119366D02*
X178587983Y-102886033D01*
X178587983Y-102886033D02*
X178454650Y-102886033D01*
X178887983Y-103186033D02*
X178887983Y-102486033D01*
X178887983Y-102486033D02*
X179154650Y-102486033D01*
X179154650Y-102486033D02*
X179221317Y-102519366D01*
X179221317Y-102519366D02*
X179254650Y-102552700D01*
X179254650Y-102552700D02*
X179287983Y-102619366D01*
X179287983Y-102619366D02*
X179287983Y-102719366D01*
X179287983Y-102719366D02*
X179254650Y-102786033D01*
X179254650Y-102786033D02*
X179221317Y-102819366D01*
X179221317Y-102819366D02*
X179154650Y-102852700D01*
X179154650Y-102852700D02*
X178887983Y-102852700D01*
X179587983Y-103186033D02*
X179587983Y-102486033D01*
X180054650Y-102486033D02*
X180187983Y-102486033D01*
X180187983Y-102486033D02*
X180254650Y-102519366D01*
X180254650Y-102519366D02*
X180321316Y-102586033D01*
X180321316Y-102586033D02*
X180354650Y-102719366D01*
X180354650Y-102719366D02*
X180354650Y-102952700D01*
X180354650Y-102952700D02*
X180321316Y-103086033D01*
X180321316Y-103086033D02*
X180254650Y-103152700D01*
X180254650Y-103152700D02*
X180187983Y-103186033D01*
X180187983Y-103186033D02*
X180054650Y-103186033D01*
X180054650Y-103186033D02*
X179987983Y-103152700D01*
X179987983Y-103152700D02*
X179921316Y-103086033D01*
X179921316Y-103086033D02*
X179887983Y-102952700D01*
X179887983Y-102952700D02*
X179887983Y-102719366D01*
X179887983Y-102719366D02*
X179921316Y-102586033D01*
X179921316Y-102586033D02*
X179987983Y-102519366D01*
X179987983Y-102519366D02*
X180054650Y-102486033D01*
X181021316Y-103186033D02*
X180621316Y-103186033D01*
X180821316Y-103186033D02*
X180821316Y-102486033D01*
X180821316Y-102486033D02*
X180754649Y-102586033D01*
X180754649Y-102586033D02*
X180687983Y-102652700D01*
X180687983Y-102652700D02*
X180621316Y-102686033D01*
X181654650Y-102486033D02*
X181321316Y-102486033D01*
X181321316Y-102486033D02*
X181287983Y-102819366D01*
X181287983Y-102819366D02*
X181321316Y-102786033D01*
X181321316Y-102786033D02*
X181387983Y-102752700D01*
X181387983Y-102752700D02*
X181554650Y-102752700D01*
X181554650Y-102752700D02*
X181621316Y-102786033D01*
X181621316Y-102786033D02*
X181654650Y-102819366D01*
X181654650Y-102819366D02*
X181687983Y-102886033D01*
X181687983Y-102886033D02*
X181687983Y-103052700D01*
X181687983Y-103052700D02*
X181654650Y-103119366D01*
X181654650Y-103119366D02*
X181621316Y-103152700D01*
X181621316Y-103152700D02*
X181554650Y-103186033D01*
X181554650Y-103186033D02*
X181387983Y-103186033D01*
X181387983Y-103186033D02*
X181321316Y-103152700D01*
X181321316Y-103152700D02*
X181287983Y-103119366D01*
X182487983Y-102452700D02*
X181887983Y-103352700D01*
X182721316Y-103186033D02*
X182721316Y-102486033D01*
X182721316Y-102486033D02*
X182954650Y-102986033D01*
X182954650Y-102986033D02*
X183187983Y-102486033D01*
X183187983Y-102486033D02*
X183187983Y-103186033D01*
X183421316Y-102486033D02*
X183821316Y-102486033D01*
X183621316Y-103186033D02*
X183621316Y-102486033D01*
X184054649Y-103186033D02*
X184054649Y-102486033D01*
X184054649Y-102486033D02*
X184221316Y-102486033D01*
X184221316Y-102486033D02*
X184321316Y-102519366D01*
X184321316Y-102519366D02*
X184387983Y-102586033D01*
X184387983Y-102586033D02*
X184421316Y-102652700D01*
X184421316Y-102652700D02*
X184454649Y-102786033D01*
X184454649Y-102786033D02*
X184454649Y-102886033D01*
X184454649Y-102886033D02*
X184421316Y-103019366D01*
X184421316Y-103019366D02*
X184387983Y-103086033D01*
X184387983Y-103086033D02*
X184321316Y-103152700D01*
X184321316Y-103152700D02*
X184221316Y-103186033D01*
X184221316Y-103186033D02*
X184054649Y-103186033D01*
X184887983Y-102486033D02*
X185021316Y-102486033D01*
X185021316Y-102486033D02*
X185087983Y-102519366D01*
X185087983Y-102519366D02*
X185154649Y-102586033D01*
X185154649Y-102586033D02*
X185187983Y-102719366D01*
X185187983Y-102719366D02*
X185187983Y-102952700D01*
X185187983Y-102952700D02*
X185154649Y-103086033D01*
X185154649Y-103086033D02*
X185087983Y-103152700D01*
X185087983Y-103152700D02*
X185021316Y-103186033D01*
X185021316Y-103186033D02*
X184887983Y-103186033D01*
X184887983Y-103186033D02*
X184821316Y-103152700D01*
X184821316Y-103152700D02*
X184754649Y-103086033D01*
X184754649Y-103086033D02*
X184721316Y-102952700D01*
X184721316Y-102952700D02*
X184721316Y-102719366D01*
X184721316Y-102719366D02*
X184754649Y-102586033D01*
X184754649Y-102586033D02*
X184821316Y-102519366D01*
X184821316Y-102519366D02*
X184887983Y-102486033D01*
X182054649Y-84739366D02*
X181987982Y-84706033D01*
X181987982Y-84706033D02*
X181887982Y-84706033D01*
X181887982Y-84706033D02*
X181787982Y-84739366D01*
X181787982Y-84739366D02*
X181721316Y-84806033D01*
X181721316Y-84806033D02*
X181687982Y-84872700D01*
X181687982Y-84872700D02*
X181654649Y-85006033D01*
X181654649Y-85006033D02*
X181654649Y-85106033D01*
X181654649Y-85106033D02*
X181687982Y-85239366D01*
X181687982Y-85239366D02*
X181721316Y-85306033D01*
X181721316Y-85306033D02*
X181787982Y-85372700D01*
X181787982Y-85372700D02*
X181887982Y-85406033D01*
X181887982Y-85406033D02*
X181954649Y-85406033D01*
X181954649Y-85406033D02*
X182054649Y-85372700D01*
X182054649Y-85372700D02*
X182087982Y-85339366D01*
X182087982Y-85339366D02*
X182087982Y-85106033D01*
X182087982Y-85106033D02*
X181954649Y-85106033D01*
X182387982Y-85406033D02*
X182387982Y-84706033D01*
X182387982Y-84706033D02*
X182654649Y-84706033D01*
X182654649Y-84706033D02*
X182721316Y-84739366D01*
X182721316Y-84739366D02*
X182754649Y-84772700D01*
X182754649Y-84772700D02*
X182787982Y-84839366D01*
X182787982Y-84839366D02*
X182787982Y-84939366D01*
X182787982Y-84939366D02*
X182754649Y-85006033D01*
X182754649Y-85006033D02*
X182721316Y-85039366D01*
X182721316Y-85039366D02*
X182654649Y-85072700D01*
X182654649Y-85072700D02*
X182387982Y-85072700D01*
X183087982Y-85406033D02*
X183087982Y-84706033D01*
X183554649Y-84706033D02*
X183687982Y-84706033D01*
X183687982Y-84706033D02*
X183754649Y-84739366D01*
X183754649Y-84739366D02*
X183821315Y-84806033D01*
X183821315Y-84806033D02*
X183854649Y-84939366D01*
X183854649Y-84939366D02*
X183854649Y-85172700D01*
X183854649Y-85172700D02*
X183821315Y-85306033D01*
X183821315Y-85306033D02*
X183754649Y-85372700D01*
X183754649Y-85372700D02*
X183687982Y-85406033D01*
X183687982Y-85406033D02*
X183554649Y-85406033D01*
X183554649Y-85406033D02*
X183487982Y-85372700D01*
X183487982Y-85372700D02*
X183421315Y-85306033D01*
X183421315Y-85306033D02*
X183387982Y-85172700D01*
X183387982Y-85172700D02*
X183387982Y-84939366D01*
X183387982Y-84939366D02*
X183421315Y-84806033D01*
X183421315Y-84806033D02*
X183487982Y-84739366D01*
X183487982Y-84739366D02*
X183554649Y-84706033D01*
X184521315Y-85406033D02*
X184121315Y-85406033D01*
X184321315Y-85406033D02*
X184321315Y-84706033D01*
X184321315Y-84706033D02*
X184254648Y-84806033D01*
X184254648Y-84806033D02*
X184187982Y-84872700D01*
X184187982Y-84872700D02*
X184121315Y-84906033D01*
X184854649Y-85406033D02*
X184987982Y-85406033D01*
X184987982Y-85406033D02*
X185054649Y-85372700D01*
X185054649Y-85372700D02*
X185087982Y-85339366D01*
X185087982Y-85339366D02*
X185154649Y-85239366D01*
X185154649Y-85239366D02*
X185187982Y-85106033D01*
X185187982Y-85106033D02*
X185187982Y-84839366D01*
X185187982Y-84839366D02*
X185154649Y-84772700D01*
X185154649Y-84772700D02*
X185121315Y-84739366D01*
X185121315Y-84739366D02*
X185054649Y-84706033D01*
X185054649Y-84706033D02*
X184921315Y-84706033D01*
X184921315Y-84706033D02*
X184854649Y-84739366D01*
X184854649Y-84739366D02*
X184821315Y-84772700D01*
X184821315Y-84772700D02*
X184787982Y-84839366D01*
X184787982Y-84839366D02*
X184787982Y-85006033D01*
X184787982Y-85006033D02*
X184821315Y-85072700D01*
X184821315Y-85072700D02*
X184854649Y-85106033D01*
X184854649Y-85106033D02*
X184921315Y-85139366D01*
X184921315Y-85139366D02*
X185054649Y-85139366D01*
X185054649Y-85139366D02*
X185121315Y-85106033D01*
X185121315Y-85106033D02*
X185154649Y-85072700D01*
X185154649Y-85072700D02*
X185187982Y-85006033D01*
X163192017Y-82199366D02*
X163125350Y-82166033D01*
X163125350Y-82166033D02*
X163025350Y-82166033D01*
X163025350Y-82166033D02*
X162925350Y-82199366D01*
X162925350Y-82199366D02*
X162858684Y-82266033D01*
X162858684Y-82266033D02*
X162825350Y-82332700D01*
X162825350Y-82332700D02*
X162792017Y-82466033D01*
X162792017Y-82466033D02*
X162792017Y-82566033D01*
X162792017Y-82566033D02*
X162825350Y-82699366D01*
X162825350Y-82699366D02*
X162858684Y-82766033D01*
X162858684Y-82766033D02*
X162925350Y-82832700D01*
X162925350Y-82832700D02*
X163025350Y-82866033D01*
X163025350Y-82866033D02*
X163092017Y-82866033D01*
X163092017Y-82866033D02*
X163192017Y-82832700D01*
X163192017Y-82832700D02*
X163225350Y-82799366D01*
X163225350Y-82799366D02*
X163225350Y-82566033D01*
X163225350Y-82566033D02*
X163092017Y-82566033D01*
X163525350Y-82866033D02*
X163525350Y-82166033D01*
X163525350Y-82166033D02*
X163792017Y-82166033D01*
X163792017Y-82166033D02*
X163858684Y-82199366D01*
X163858684Y-82199366D02*
X163892017Y-82232700D01*
X163892017Y-82232700D02*
X163925350Y-82299366D01*
X163925350Y-82299366D02*
X163925350Y-82399366D01*
X163925350Y-82399366D02*
X163892017Y-82466033D01*
X163892017Y-82466033D02*
X163858684Y-82499366D01*
X163858684Y-82499366D02*
X163792017Y-82532700D01*
X163792017Y-82532700D02*
X163525350Y-82532700D01*
X164225350Y-82866033D02*
X164225350Y-82166033D01*
X164692017Y-82166033D02*
X164825350Y-82166033D01*
X164825350Y-82166033D02*
X164892017Y-82199366D01*
X164892017Y-82199366D02*
X164958683Y-82266033D01*
X164958683Y-82266033D02*
X164992017Y-82399366D01*
X164992017Y-82399366D02*
X164992017Y-82632700D01*
X164992017Y-82632700D02*
X164958683Y-82766033D01*
X164958683Y-82766033D02*
X164892017Y-82832700D01*
X164892017Y-82832700D02*
X164825350Y-82866033D01*
X164825350Y-82866033D02*
X164692017Y-82866033D01*
X164692017Y-82866033D02*
X164625350Y-82832700D01*
X164625350Y-82832700D02*
X164558683Y-82766033D01*
X164558683Y-82766033D02*
X164525350Y-82632700D01*
X164525350Y-82632700D02*
X164525350Y-82399366D01*
X164525350Y-82399366D02*
X164558683Y-82266033D01*
X164558683Y-82266033D02*
X164625350Y-82199366D01*
X164625350Y-82199366D02*
X164692017Y-82166033D01*
X165225350Y-82166033D02*
X165658683Y-82166033D01*
X165658683Y-82166033D02*
X165425350Y-82432700D01*
X165425350Y-82432700D02*
X165525350Y-82432700D01*
X165525350Y-82432700D02*
X165592016Y-82466033D01*
X165592016Y-82466033D02*
X165625350Y-82499366D01*
X165625350Y-82499366D02*
X165658683Y-82566033D01*
X165658683Y-82566033D02*
X165658683Y-82732700D01*
X165658683Y-82732700D02*
X165625350Y-82799366D01*
X165625350Y-82799366D02*
X165592016Y-82832700D01*
X165592016Y-82832700D02*
X165525350Y-82866033D01*
X165525350Y-82866033D02*
X165325350Y-82866033D01*
X165325350Y-82866033D02*
X165258683Y-82832700D01*
X165258683Y-82832700D02*
X165225350Y-82799366D01*
X166292017Y-82166033D02*
X165958683Y-82166033D01*
X165958683Y-82166033D02*
X165925350Y-82499366D01*
X165925350Y-82499366D02*
X165958683Y-82466033D01*
X165958683Y-82466033D02*
X166025350Y-82432700D01*
X166025350Y-82432700D02*
X166192017Y-82432700D01*
X166192017Y-82432700D02*
X166258683Y-82466033D01*
X166258683Y-82466033D02*
X166292017Y-82499366D01*
X166292017Y-82499366D02*
X166325350Y-82566033D01*
X166325350Y-82566033D02*
X166325350Y-82732700D01*
X166325350Y-82732700D02*
X166292017Y-82799366D01*
X166292017Y-82799366D02*
X166258683Y-82832700D01*
X166258683Y-82832700D02*
X166192017Y-82866033D01*
X166192017Y-82866033D02*
X166025350Y-82866033D01*
X166025350Y-82866033D02*
X165958683Y-82832700D01*
X165958683Y-82832700D02*
X165925350Y-82799366D01*
X162791921Y-72318289D02*
X163125254Y-72318289D01*
X163268111Y-72842099D02*
X162791921Y-72842099D01*
X162791921Y-72842099D02*
X162791921Y-71842099D01*
X162791921Y-71842099D02*
X163268111Y-71842099D01*
X163696683Y-72842099D02*
X163696683Y-71842099D01*
X163696683Y-71842099D02*
X164268111Y-72842099D01*
X164268111Y-72842099D02*
X164268111Y-71842099D01*
X165458587Y-71794480D02*
X164601445Y-73080194D01*
X166363349Y-72842099D02*
X166030016Y-72365908D01*
X165791921Y-72842099D02*
X165791921Y-71842099D01*
X165791921Y-71842099D02*
X166172873Y-71842099D01*
X166172873Y-71842099D02*
X166268111Y-71889718D01*
X166268111Y-71889718D02*
X166315730Y-71937337D01*
X166315730Y-71937337D02*
X166363349Y-72032575D01*
X166363349Y-72032575D02*
X166363349Y-72175432D01*
X166363349Y-72175432D02*
X166315730Y-72270670D01*
X166315730Y-72270670D02*
X166268111Y-72318289D01*
X166268111Y-72318289D02*
X166172873Y-72365908D01*
X166172873Y-72365908D02*
X165791921Y-72365908D01*
X166791921Y-72318289D02*
X167125254Y-72318289D01*
X167268111Y-72842099D02*
X166791921Y-72842099D01*
X166791921Y-72842099D02*
X166791921Y-71842099D01*
X166791921Y-71842099D02*
X167268111Y-71842099D01*
X167649064Y-72794480D02*
X167791921Y-72842099D01*
X167791921Y-72842099D02*
X168030016Y-72842099D01*
X168030016Y-72842099D02*
X168125254Y-72794480D01*
X168125254Y-72794480D02*
X168172873Y-72746860D01*
X168172873Y-72746860D02*
X168220492Y-72651622D01*
X168220492Y-72651622D02*
X168220492Y-72556384D01*
X168220492Y-72556384D02*
X168172873Y-72461146D01*
X168172873Y-72461146D02*
X168125254Y-72413527D01*
X168125254Y-72413527D02*
X168030016Y-72365908D01*
X168030016Y-72365908D02*
X167839540Y-72318289D01*
X167839540Y-72318289D02*
X167744302Y-72270670D01*
X167744302Y-72270670D02*
X167696683Y-72223051D01*
X167696683Y-72223051D02*
X167649064Y-72127813D01*
X167649064Y-72127813D02*
X167649064Y-72032575D01*
X167649064Y-72032575D02*
X167696683Y-71937337D01*
X167696683Y-71937337D02*
X167744302Y-71889718D01*
X167744302Y-71889718D02*
X167839540Y-71842099D01*
X167839540Y-71842099D02*
X168077635Y-71842099D01*
X168077635Y-71842099D02*
X168220492Y-71889718D01*
X168649064Y-72318289D02*
X168982397Y-72318289D01*
X169125254Y-72842099D02*
X168649064Y-72842099D01*
X168649064Y-72842099D02*
X168649064Y-71842099D01*
X168649064Y-71842099D02*
X169125254Y-71842099D01*
X169410969Y-71842099D02*
X169982397Y-71842099D01*
X169696683Y-72842099D02*
X169696683Y-71842099D01*
X162725350Y-74546033D02*
X162958684Y-75246033D01*
X162958684Y-75246033D02*
X163192017Y-74546033D01*
X163425350Y-75246033D02*
X163425350Y-74546033D01*
X163425350Y-74546033D02*
X163692017Y-74546033D01*
X163692017Y-74546033D02*
X163758684Y-74579366D01*
X163758684Y-74579366D02*
X163792017Y-74612700D01*
X163792017Y-74612700D02*
X163825350Y-74679366D01*
X163825350Y-74679366D02*
X163825350Y-74779366D01*
X163825350Y-74779366D02*
X163792017Y-74846033D01*
X163792017Y-74846033D02*
X163758684Y-74879366D01*
X163758684Y-74879366D02*
X163692017Y-74912700D01*
X163692017Y-74912700D02*
X163425350Y-74912700D01*
X164625350Y-74512700D02*
X164025350Y-75412700D01*
X165225350Y-74579366D02*
X165158683Y-74546033D01*
X165158683Y-74546033D02*
X165058683Y-74546033D01*
X165058683Y-74546033D02*
X164958683Y-74579366D01*
X164958683Y-74579366D02*
X164892017Y-74646033D01*
X164892017Y-74646033D02*
X164858683Y-74712700D01*
X164858683Y-74712700D02*
X164825350Y-74846033D01*
X164825350Y-74846033D02*
X164825350Y-74946033D01*
X164825350Y-74946033D02*
X164858683Y-75079366D01*
X164858683Y-75079366D02*
X164892017Y-75146033D01*
X164892017Y-75146033D02*
X164958683Y-75212700D01*
X164958683Y-75212700D02*
X165058683Y-75246033D01*
X165058683Y-75246033D02*
X165125350Y-75246033D01*
X165125350Y-75246033D02*
X165225350Y-75212700D01*
X165225350Y-75212700D02*
X165258683Y-75179366D01*
X165258683Y-75179366D02*
X165258683Y-74946033D01*
X165258683Y-74946033D02*
X165125350Y-74946033D01*
X165558683Y-75246033D02*
X165558683Y-74546033D01*
X165558683Y-74546033D02*
X165825350Y-74546033D01*
X165825350Y-74546033D02*
X165892017Y-74579366D01*
X165892017Y-74579366D02*
X165925350Y-74612700D01*
X165925350Y-74612700D02*
X165958683Y-74679366D01*
X165958683Y-74679366D02*
X165958683Y-74779366D01*
X165958683Y-74779366D02*
X165925350Y-74846033D01*
X165925350Y-74846033D02*
X165892017Y-74879366D01*
X165892017Y-74879366D02*
X165825350Y-74912700D01*
X165825350Y-74912700D02*
X165558683Y-74912700D01*
X166258683Y-75246033D02*
X166258683Y-74546033D01*
X166725350Y-74546033D02*
X166858683Y-74546033D01*
X166858683Y-74546033D02*
X166925350Y-74579366D01*
X166925350Y-74579366D02*
X166992016Y-74646033D01*
X166992016Y-74646033D02*
X167025350Y-74779366D01*
X167025350Y-74779366D02*
X167025350Y-75012700D01*
X167025350Y-75012700D02*
X166992016Y-75146033D01*
X166992016Y-75146033D02*
X166925350Y-75212700D01*
X166925350Y-75212700D02*
X166858683Y-75246033D01*
X166858683Y-75246033D02*
X166725350Y-75246033D01*
X166725350Y-75246033D02*
X166658683Y-75212700D01*
X166658683Y-75212700D02*
X166592016Y-75146033D01*
X166592016Y-75146033D02*
X166558683Y-75012700D01*
X166558683Y-75012700D02*
X166558683Y-74779366D01*
X166558683Y-74779366D02*
X166592016Y-74646033D01*
X166592016Y-74646033D02*
X166658683Y-74579366D01*
X166658683Y-74579366D02*
X166725350Y-74546033D01*
X167258683Y-74546033D02*
X167692016Y-74546033D01*
X167692016Y-74546033D02*
X167458683Y-74812700D01*
X167458683Y-74812700D02*
X167558683Y-74812700D01*
X167558683Y-74812700D02*
X167625349Y-74846033D01*
X167625349Y-74846033D02*
X167658683Y-74879366D01*
X167658683Y-74879366D02*
X167692016Y-74946033D01*
X167692016Y-74946033D02*
X167692016Y-75112700D01*
X167692016Y-75112700D02*
X167658683Y-75179366D01*
X167658683Y-75179366D02*
X167625349Y-75212700D01*
X167625349Y-75212700D02*
X167558683Y-75246033D01*
X167558683Y-75246033D02*
X167358683Y-75246033D01*
X167358683Y-75246033D02*
X167292016Y-75212700D01*
X167292016Y-75212700D02*
X167258683Y-75179366D01*
X168292016Y-74546033D02*
X168158683Y-74546033D01*
X168158683Y-74546033D02*
X168092016Y-74579366D01*
X168092016Y-74579366D02*
X168058683Y-74612700D01*
X168058683Y-74612700D02*
X167992016Y-74712700D01*
X167992016Y-74712700D02*
X167958683Y-74846033D01*
X167958683Y-74846033D02*
X167958683Y-75112700D01*
X167958683Y-75112700D02*
X167992016Y-75179366D01*
X167992016Y-75179366D02*
X168025350Y-75212700D01*
X168025350Y-75212700D02*
X168092016Y-75246033D01*
X168092016Y-75246033D02*
X168225350Y-75246033D01*
X168225350Y-75246033D02*
X168292016Y-75212700D01*
X168292016Y-75212700D02*
X168325350Y-75179366D01*
X168325350Y-75179366D02*
X168358683Y-75112700D01*
X168358683Y-75112700D02*
X168358683Y-74946033D01*
X168358683Y-74946033D02*
X168325350Y-74879366D01*
X168325350Y-74879366D02*
X168292016Y-74846033D01*
X168292016Y-74846033D02*
X168225350Y-74812700D01*
X168225350Y-74812700D02*
X168092016Y-74812700D01*
X168092016Y-74812700D02*
X168025350Y-74846033D01*
X168025350Y-74846033D02*
X167992016Y-74879366D01*
X167992016Y-74879366D02*
X167958683Y-74946033D01*
X182054649Y-92359366D02*
X181987982Y-92326033D01*
X181987982Y-92326033D02*
X181887982Y-92326033D01*
X181887982Y-92326033D02*
X181787982Y-92359366D01*
X181787982Y-92359366D02*
X181721316Y-92426033D01*
X181721316Y-92426033D02*
X181687982Y-92492700D01*
X181687982Y-92492700D02*
X181654649Y-92626033D01*
X181654649Y-92626033D02*
X181654649Y-92726033D01*
X181654649Y-92726033D02*
X181687982Y-92859366D01*
X181687982Y-92859366D02*
X181721316Y-92926033D01*
X181721316Y-92926033D02*
X181787982Y-92992700D01*
X181787982Y-92992700D02*
X181887982Y-93026033D01*
X181887982Y-93026033D02*
X181954649Y-93026033D01*
X181954649Y-93026033D02*
X182054649Y-92992700D01*
X182054649Y-92992700D02*
X182087982Y-92959366D01*
X182087982Y-92959366D02*
X182087982Y-92726033D01*
X182087982Y-92726033D02*
X181954649Y-92726033D01*
X182387982Y-93026033D02*
X182387982Y-92326033D01*
X182387982Y-92326033D02*
X182654649Y-92326033D01*
X182654649Y-92326033D02*
X182721316Y-92359366D01*
X182721316Y-92359366D02*
X182754649Y-92392700D01*
X182754649Y-92392700D02*
X182787982Y-92459366D01*
X182787982Y-92459366D02*
X182787982Y-92559366D01*
X182787982Y-92559366D02*
X182754649Y-92626033D01*
X182754649Y-92626033D02*
X182721316Y-92659366D01*
X182721316Y-92659366D02*
X182654649Y-92692700D01*
X182654649Y-92692700D02*
X182387982Y-92692700D01*
X183087982Y-93026033D02*
X183087982Y-92326033D01*
X183554649Y-92326033D02*
X183687982Y-92326033D01*
X183687982Y-92326033D02*
X183754649Y-92359366D01*
X183754649Y-92359366D02*
X183821315Y-92426033D01*
X183821315Y-92426033D02*
X183854649Y-92559366D01*
X183854649Y-92559366D02*
X183854649Y-92792700D01*
X183854649Y-92792700D02*
X183821315Y-92926033D01*
X183821315Y-92926033D02*
X183754649Y-92992700D01*
X183754649Y-92992700D02*
X183687982Y-93026033D01*
X183687982Y-93026033D02*
X183554649Y-93026033D01*
X183554649Y-93026033D02*
X183487982Y-92992700D01*
X183487982Y-92992700D02*
X183421315Y-92926033D01*
X183421315Y-92926033D02*
X183387982Y-92792700D01*
X183387982Y-92792700D02*
X183387982Y-92559366D01*
X183387982Y-92559366D02*
X183421315Y-92426033D01*
X183421315Y-92426033D02*
X183487982Y-92359366D01*
X183487982Y-92359366D02*
X183554649Y-92326033D01*
X184521315Y-93026033D02*
X184121315Y-93026033D01*
X184321315Y-93026033D02*
X184321315Y-92326033D01*
X184321315Y-92326033D02*
X184254648Y-92426033D01*
X184254648Y-92426033D02*
X184187982Y-92492700D01*
X184187982Y-92492700D02*
X184121315Y-92526033D01*
X184754649Y-92326033D02*
X185221315Y-92326033D01*
X185221315Y-92326033D02*
X184921315Y-93026033D01*
X163192017Y-89819366D02*
X163125350Y-89786033D01*
X163125350Y-89786033D02*
X163025350Y-89786033D01*
X163025350Y-89786033D02*
X162925350Y-89819366D01*
X162925350Y-89819366D02*
X162858684Y-89886033D01*
X162858684Y-89886033D02*
X162825350Y-89952700D01*
X162825350Y-89952700D02*
X162792017Y-90086033D01*
X162792017Y-90086033D02*
X162792017Y-90186033D01*
X162792017Y-90186033D02*
X162825350Y-90319366D01*
X162825350Y-90319366D02*
X162858684Y-90386033D01*
X162858684Y-90386033D02*
X162925350Y-90452700D01*
X162925350Y-90452700D02*
X163025350Y-90486033D01*
X163025350Y-90486033D02*
X163092017Y-90486033D01*
X163092017Y-90486033D02*
X163192017Y-90452700D01*
X163192017Y-90452700D02*
X163225350Y-90419366D01*
X163225350Y-90419366D02*
X163225350Y-90186033D01*
X163225350Y-90186033D02*
X163092017Y-90186033D01*
X163525350Y-90486033D02*
X163525350Y-89786033D01*
X163525350Y-89786033D02*
X163792017Y-89786033D01*
X163792017Y-89786033D02*
X163858684Y-89819366D01*
X163858684Y-89819366D02*
X163892017Y-89852700D01*
X163892017Y-89852700D02*
X163925350Y-89919366D01*
X163925350Y-89919366D02*
X163925350Y-90019366D01*
X163925350Y-90019366D02*
X163892017Y-90086033D01*
X163892017Y-90086033D02*
X163858684Y-90119366D01*
X163858684Y-90119366D02*
X163792017Y-90152700D01*
X163792017Y-90152700D02*
X163525350Y-90152700D01*
X164225350Y-90486033D02*
X164225350Y-89786033D01*
X164692017Y-89786033D02*
X164825350Y-89786033D01*
X164825350Y-89786033D02*
X164892017Y-89819366D01*
X164892017Y-89819366D02*
X164958683Y-89886033D01*
X164958683Y-89886033D02*
X164992017Y-90019366D01*
X164992017Y-90019366D02*
X164992017Y-90252700D01*
X164992017Y-90252700D02*
X164958683Y-90386033D01*
X164958683Y-90386033D02*
X164892017Y-90452700D01*
X164892017Y-90452700D02*
X164825350Y-90486033D01*
X164825350Y-90486033D02*
X164692017Y-90486033D01*
X164692017Y-90486033D02*
X164625350Y-90452700D01*
X164625350Y-90452700D02*
X164558683Y-90386033D01*
X164558683Y-90386033D02*
X164525350Y-90252700D01*
X164525350Y-90252700D02*
X164525350Y-90019366D01*
X164525350Y-90019366D02*
X164558683Y-89886033D01*
X164558683Y-89886033D02*
X164625350Y-89819366D01*
X164625350Y-89819366D02*
X164692017Y-89786033D01*
X165258683Y-89852700D02*
X165292016Y-89819366D01*
X165292016Y-89819366D02*
X165358683Y-89786033D01*
X165358683Y-89786033D02*
X165525350Y-89786033D01*
X165525350Y-89786033D02*
X165592016Y-89819366D01*
X165592016Y-89819366D02*
X165625350Y-89852700D01*
X165625350Y-89852700D02*
X165658683Y-89919366D01*
X165658683Y-89919366D02*
X165658683Y-89986033D01*
X165658683Y-89986033D02*
X165625350Y-90086033D01*
X165625350Y-90086033D02*
X165225350Y-90486033D01*
X165225350Y-90486033D02*
X165658683Y-90486033D01*
X166292017Y-89786033D02*
X165958683Y-89786033D01*
X165958683Y-89786033D02*
X165925350Y-90119366D01*
X165925350Y-90119366D02*
X165958683Y-90086033D01*
X165958683Y-90086033D02*
X166025350Y-90052700D01*
X166025350Y-90052700D02*
X166192017Y-90052700D01*
X166192017Y-90052700D02*
X166258683Y-90086033D01*
X166258683Y-90086033D02*
X166292017Y-90119366D01*
X166292017Y-90119366D02*
X166325350Y-90186033D01*
X166325350Y-90186033D02*
X166325350Y-90352700D01*
X166325350Y-90352700D02*
X166292017Y-90419366D01*
X166292017Y-90419366D02*
X166258683Y-90452700D01*
X166258683Y-90452700D02*
X166192017Y-90486033D01*
X166192017Y-90486033D02*
X166025350Y-90486033D01*
X166025350Y-90486033D02*
X165958683Y-90452700D01*
X165958683Y-90452700D02*
X165925350Y-90419366D01*
X182054649Y-94899366D02*
X181987982Y-94866033D01*
X181987982Y-94866033D02*
X181887982Y-94866033D01*
X181887982Y-94866033D02*
X181787982Y-94899366D01*
X181787982Y-94899366D02*
X181721316Y-94966033D01*
X181721316Y-94966033D02*
X181687982Y-95032700D01*
X181687982Y-95032700D02*
X181654649Y-95166033D01*
X181654649Y-95166033D02*
X181654649Y-95266033D01*
X181654649Y-95266033D02*
X181687982Y-95399366D01*
X181687982Y-95399366D02*
X181721316Y-95466033D01*
X181721316Y-95466033D02*
X181787982Y-95532700D01*
X181787982Y-95532700D02*
X181887982Y-95566033D01*
X181887982Y-95566033D02*
X181954649Y-95566033D01*
X181954649Y-95566033D02*
X182054649Y-95532700D01*
X182054649Y-95532700D02*
X182087982Y-95499366D01*
X182087982Y-95499366D02*
X182087982Y-95266033D01*
X182087982Y-95266033D02*
X181954649Y-95266033D01*
X182387982Y-95566033D02*
X182387982Y-94866033D01*
X182387982Y-94866033D02*
X182654649Y-94866033D01*
X182654649Y-94866033D02*
X182721316Y-94899366D01*
X182721316Y-94899366D02*
X182754649Y-94932700D01*
X182754649Y-94932700D02*
X182787982Y-94999366D01*
X182787982Y-94999366D02*
X182787982Y-95099366D01*
X182787982Y-95099366D02*
X182754649Y-95166033D01*
X182754649Y-95166033D02*
X182721316Y-95199366D01*
X182721316Y-95199366D02*
X182654649Y-95232700D01*
X182654649Y-95232700D02*
X182387982Y-95232700D01*
X183087982Y-95566033D02*
X183087982Y-94866033D01*
X183554649Y-94866033D02*
X183687982Y-94866033D01*
X183687982Y-94866033D02*
X183754649Y-94899366D01*
X183754649Y-94899366D02*
X183821315Y-94966033D01*
X183821315Y-94966033D02*
X183854649Y-95099366D01*
X183854649Y-95099366D02*
X183854649Y-95332700D01*
X183854649Y-95332700D02*
X183821315Y-95466033D01*
X183821315Y-95466033D02*
X183754649Y-95532700D01*
X183754649Y-95532700D02*
X183687982Y-95566033D01*
X183687982Y-95566033D02*
X183554649Y-95566033D01*
X183554649Y-95566033D02*
X183487982Y-95532700D01*
X183487982Y-95532700D02*
X183421315Y-95466033D01*
X183421315Y-95466033D02*
X183387982Y-95332700D01*
X183387982Y-95332700D02*
X183387982Y-95099366D01*
X183387982Y-95099366D02*
X183421315Y-94966033D01*
X183421315Y-94966033D02*
X183487982Y-94899366D01*
X183487982Y-94899366D02*
X183554649Y-94866033D01*
X184521315Y-95566033D02*
X184121315Y-95566033D01*
X184321315Y-95566033D02*
X184321315Y-94866033D01*
X184321315Y-94866033D02*
X184254648Y-94966033D01*
X184254648Y-94966033D02*
X184187982Y-95032700D01*
X184187982Y-95032700D02*
X184121315Y-95066033D01*
X185121315Y-94866033D02*
X184987982Y-94866033D01*
X184987982Y-94866033D02*
X184921315Y-94899366D01*
X184921315Y-94899366D02*
X184887982Y-94932700D01*
X184887982Y-94932700D02*
X184821315Y-95032700D01*
X184821315Y-95032700D02*
X184787982Y-95166033D01*
X184787982Y-95166033D02*
X184787982Y-95432700D01*
X184787982Y-95432700D02*
X184821315Y-95499366D01*
X184821315Y-95499366D02*
X184854649Y-95532700D01*
X184854649Y-95532700D02*
X184921315Y-95566033D01*
X184921315Y-95566033D02*
X185054649Y-95566033D01*
X185054649Y-95566033D02*
X185121315Y-95532700D01*
X185121315Y-95532700D02*
X185154649Y-95499366D01*
X185154649Y-95499366D02*
X185187982Y-95432700D01*
X185187982Y-95432700D02*
X185187982Y-95266033D01*
X185187982Y-95266033D02*
X185154649Y-95199366D01*
X185154649Y-95199366D02*
X185121315Y-95166033D01*
X185121315Y-95166033D02*
X185054649Y-95132700D01*
X185054649Y-95132700D02*
X184921315Y-95132700D01*
X184921315Y-95132700D02*
X184854649Y-95166033D01*
X184854649Y-95166033D02*
X184821315Y-95199366D01*
X184821315Y-95199366D02*
X184787982Y-95266033D01*
X163192017Y-79659366D02*
X163125350Y-79626033D01*
X163125350Y-79626033D02*
X163025350Y-79626033D01*
X163025350Y-79626033D02*
X162925350Y-79659366D01*
X162925350Y-79659366D02*
X162858684Y-79726033D01*
X162858684Y-79726033D02*
X162825350Y-79792700D01*
X162825350Y-79792700D02*
X162792017Y-79926033D01*
X162792017Y-79926033D02*
X162792017Y-80026033D01*
X162792017Y-80026033D02*
X162825350Y-80159366D01*
X162825350Y-80159366D02*
X162858684Y-80226033D01*
X162858684Y-80226033D02*
X162925350Y-80292700D01*
X162925350Y-80292700D02*
X163025350Y-80326033D01*
X163025350Y-80326033D02*
X163092017Y-80326033D01*
X163092017Y-80326033D02*
X163192017Y-80292700D01*
X163192017Y-80292700D02*
X163225350Y-80259366D01*
X163225350Y-80259366D02*
X163225350Y-80026033D01*
X163225350Y-80026033D02*
X163092017Y-80026033D01*
X163525350Y-80326033D02*
X163525350Y-79626033D01*
X163525350Y-79626033D02*
X163792017Y-79626033D01*
X163792017Y-79626033D02*
X163858684Y-79659366D01*
X163858684Y-79659366D02*
X163892017Y-79692700D01*
X163892017Y-79692700D02*
X163925350Y-79759366D01*
X163925350Y-79759366D02*
X163925350Y-79859366D01*
X163925350Y-79859366D02*
X163892017Y-79926033D01*
X163892017Y-79926033D02*
X163858684Y-79959366D01*
X163858684Y-79959366D02*
X163792017Y-79992700D01*
X163792017Y-79992700D02*
X163525350Y-79992700D01*
X164225350Y-80326033D02*
X164225350Y-79626033D01*
X164692017Y-79626033D02*
X164825350Y-79626033D01*
X164825350Y-79626033D02*
X164892017Y-79659366D01*
X164892017Y-79659366D02*
X164958683Y-79726033D01*
X164958683Y-79726033D02*
X164992017Y-79859366D01*
X164992017Y-79859366D02*
X164992017Y-80092700D01*
X164992017Y-80092700D02*
X164958683Y-80226033D01*
X164958683Y-80226033D02*
X164892017Y-80292700D01*
X164892017Y-80292700D02*
X164825350Y-80326033D01*
X164825350Y-80326033D02*
X164692017Y-80326033D01*
X164692017Y-80326033D02*
X164625350Y-80292700D01*
X164625350Y-80292700D02*
X164558683Y-80226033D01*
X164558683Y-80226033D02*
X164525350Y-80092700D01*
X164525350Y-80092700D02*
X164525350Y-79859366D01*
X164525350Y-79859366D02*
X164558683Y-79726033D01*
X164558683Y-79726033D02*
X164625350Y-79659366D01*
X164625350Y-79659366D02*
X164692017Y-79626033D01*
X165225350Y-79626033D02*
X165658683Y-79626033D01*
X165658683Y-79626033D02*
X165425350Y-79892700D01*
X165425350Y-79892700D02*
X165525350Y-79892700D01*
X165525350Y-79892700D02*
X165592016Y-79926033D01*
X165592016Y-79926033D02*
X165625350Y-79959366D01*
X165625350Y-79959366D02*
X165658683Y-80026033D01*
X165658683Y-80026033D02*
X165658683Y-80192700D01*
X165658683Y-80192700D02*
X165625350Y-80259366D01*
X165625350Y-80259366D02*
X165592016Y-80292700D01*
X165592016Y-80292700D02*
X165525350Y-80326033D01*
X165525350Y-80326033D02*
X165325350Y-80326033D01*
X165325350Y-80326033D02*
X165258683Y-80292700D01*
X165258683Y-80292700D02*
X165225350Y-80259366D01*
X166258683Y-79859366D02*
X166258683Y-80326033D01*
X166092017Y-79592700D02*
X165925350Y-80092700D01*
X165925350Y-80092700D02*
X166358683Y-80092700D01*
X163192017Y-87279366D02*
X163125350Y-87246033D01*
X163125350Y-87246033D02*
X163025350Y-87246033D01*
X163025350Y-87246033D02*
X162925350Y-87279366D01*
X162925350Y-87279366D02*
X162858684Y-87346033D01*
X162858684Y-87346033D02*
X162825350Y-87412700D01*
X162825350Y-87412700D02*
X162792017Y-87546033D01*
X162792017Y-87546033D02*
X162792017Y-87646033D01*
X162792017Y-87646033D02*
X162825350Y-87779366D01*
X162825350Y-87779366D02*
X162858684Y-87846033D01*
X162858684Y-87846033D02*
X162925350Y-87912700D01*
X162925350Y-87912700D02*
X163025350Y-87946033D01*
X163025350Y-87946033D02*
X163092017Y-87946033D01*
X163092017Y-87946033D02*
X163192017Y-87912700D01*
X163192017Y-87912700D02*
X163225350Y-87879366D01*
X163225350Y-87879366D02*
X163225350Y-87646033D01*
X163225350Y-87646033D02*
X163092017Y-87646033D01*
X163525350Y-87946033D02*
X163525350Y-87246033D01*
X163525350Y-87246033D02*
X163792017Y-87246033D01*
X163792017Y-87246033D02*
X163858684Y-87279366D01*
X163858684Y-87279366D02*
X163892017Y-87312700D01*
X163892017Y-87312700D02*
X163925350Y-87379366D01*
X163925350Y-87379366D02*
X163925350Y-87479366D01*
X163925350Y-87479366D02*
X163892017Y-87546033D01*
X163892017Y-87546033D02*
X163858684Y-87579366D01*
X163858684Y-87579366D02*
X163792017Y-87612700D01*
X163792017Y-87612700D02*
X163525350Y-87612700D01*
X164225350Y-87946033D02*
X164225350Y-87246033D01*
X164692017Y-87246033D02*
X164825350Y-87246033D01*
X164825350Y-87246033D02*
X164892017Y-87279366D01*
X164892017Y-87279366D02*
X164958683Y-87346033D01*
X164958683Y-87346033D02*
X164992017Y-87479366D01*
X164992017Y-87479366D02*
X164992017Y-87712700D01*
X164992017Y-87712700D02*
X164958683Y-87846033D01*
X164958683Y-87846033D02*
X164892017Y-87912700D01*
X164892017Y-87912700D02*
X164825350Y-87946033D01*
X164825350Y-87946033D02*
X164692017Y-87946033D01*
X164692017Y-87946033D02*
X164625350Y-87912700D01*
X164625350Y-87912700D02*
X164558683Y-87846033D01*
X164558683Y-87846033D02*
X164525350Y-87712700D01*
X164525350Y-87712700D02*
X164525350Y-87479366D01*
X164525350Y-87479366D02*
X164558683Y-87346033D01*
X164558683Y-87346033D02*
X164625350Y-87279366D01*
X164625350Y-87279366D02*
X164692017Y-87246033D01*
X165225350Y-87246033D02*
X165658683Y-87246033D01*
X165658683Y-87246033D02*
X165425350Y-87512700D01*
X165425350Y-87512700D02*
X165525350Y-87512700D01*
X165525350Y-87512700D02*
X165592016Y-87546033D01*
X165592016Y-87546033D02*
X165625350Y-87579366D01*
X165625350Y-87579366D02*
X165658683Y-87646033D01*
X165658683Y-87646033D02*
X165658683Y-87812700D01*
X165658683Y-87812700D02*
X165625350Y-87879366D01*
X165625350Y-87879366D02*
X165592016Y-87912700D01*
X165592016Y-87912700D02*
X165525350Y-87946033D01*
X165525350Y-87946033D02*
X165325350Y-87946033D01*
X165325350Y-87946033D02*
X165258683Y-87912700D01*
X165258683Y-87912700D02*
X165225350Y-87879366D01*
X165892017Y-87246033D02*
X166325350Y-87246033D01*
X166325350Y-87246033D02*
X166092017Y-87512700D01*
X166092017Y-87512700D02*
X166192017Y-87512700D01*
X166192017Y-87512700D02*
X166258683Y-87546033D01*
X166258683Y-87546033D02*
X166292017Y-87579366D01*
X166292017Y-87579366D02*
X166325350Y-87646033D01*
X166325350Y-87646033D02*
X166325350Y-87812700D01*
X166325350Y-87812700D02*
X166292017Y-87879366D01*
X166292017Y-87879366D02*
X166258683Y-87912700D01*
X166258683Y-87912700D02*
X166192017Y-87946033D01*
X166192017Y-87946033D02*
X165992017Y-87946033D01*
X165992017Y-87946033D02*
X165925350Y-87912700D01*
X165925350Y-87912700D02*
X165892017Y-87879366D01*
X182721316Y-97439366D02*
X182654649Y-97406033D01*
X182654649Y-97406033D02*
X182554649Y-97406033D01*
X182554649Y-97406033D02*
X182454649Y-97439366D01*
X182454649Y-97439366D02*
X182387983Y-97506033D01*
X182387983Y-97506033D02*
X182354649Y-97572700D01*
X182354649Y-97572700D02*
X182321316Y-97706033D01*
X182321316Y-97706033D02*
X182321316Y-97806033D01*
X182321316Y-97806033D02*
X182354649Y-97939366D01*
X182354649Y-97939366D02*
X182387983Y-98006033D01*
X182387983Y-98006033D02*
X182454649Y-98072700D01*
X182454649Y-98072700D02*
X182554649Y-98106033D01*
X182554649Y-98106033D02*
X182621316Y-98106033D01*
X182621316Y-98106033D02*
X182721316Y-98072700D01*
X182721316Y-98072700D02*
X182754649Y-98039366D01*
X182754649Y-98039366D02*
X182754649Y-97806033D01*
X182754649Y-97806033D02*
X182621316Y-97806033D01*
X183054649Y-98106033D02*
X183054649Y-97406033D01*
X183054649Y-97406033D02*
X183321316Y-97406033D01*
X183321316Y-97406033D02*
X183387983Y-97439366D01*
X183387983Y-97439366D02*
X183421316Y-97472700D01*
X183421316Y-97472700D02*
X183454649Y-97539366D01*
X183454649Y-97539366D02*
X183454649Y-97639366D01*
X183454649Y-97639366D02*
X183421316Y-97706033D01*
X183421316Y-97706033D02*
X183387983Y-97739366D01*
X183387983Y-97739366D02*
X183321316Y-97772700D01*
X183321316Y-97772700D02*
X183054649Y-97772700D01*
X183754649Y-98106033D02*
X183754649Y-97406033D01*
X184221316Y-97406033D02*
X184354649Y-97406033D01*
X184354649Y-97406033D02*
X184421316Y-97439366D01*
X184421316Y-97439366D02*
X184487982Y-97506033D01*
X184487982Y-97506033D02*
X184521316Y-97639366D01*
X184521316Y-97639366D02*
X184521316Y-97872700D01*
X184521316Y-97872700D02*
X184487982Y-98006033D01*
X184487982Y-98006033D02*
X184421316Y-98072700D01*
X184421316Y-98072700D02*
X184354649Y-98106033D01*
X184354649Y-98106033D02*
X184221316Y-98106033D01*
X184221316Y-98106033D02*
X184154649Y-98072700D01*
X184154649Y-98072700D02*
X184087982Y-98006033D01*
X184087982Y-98006033D02*
X184054649Y-97872700D01*
X184054649Y-97872700D02*
X184054649Y-97639366D01*
X184054649Y-97639366D02*
X184087982Y-97506033D01*
X184087982Y-97506033D02*
X184154649Y-97439366D01*
X184154649Y-97439366D02*
X184221316Y-97406033D01*
X185121315Y-97639366D02*
X185121315Y-98106033D01*
X184954649Y-97372700D02*
X184787982Y-97872700D01*
X184787982Y-97872700D02*
X185221315Y-97872700D01*
X182721316Y-89819366D02*
X182654649Y-89786033D01*
X182654649Y-89786033D02*
X182554649Y-89786033D01*
X182554649Y-89786033D02*
X182454649Y-89819366D01*
X182454649Y-89819366D02*
X182387983Y-89886033D01*
X182387983Y-89886033D02*
X182354649Y-89952700D01*
X182354649Y-89952700D02*
X182321316Y-90086033D01*
X182321316Y-90086033D02*
X182321316Y-90186033D01*
X182321316Y-90186033D02*
X182354649Y-90319366D01*
X182354649Y-90319366D02*
X182387983Y-90386033D01*
X182387983Y-90386033D02*
X182454649Y-90452700D01*
X182454649Y-90452700D02*
X182554649Y-90486033D01*
X182554649Y-90486033D02*
X182621316Y-90486033D01*
X182621316Y-90486033D02*
X182721316Y-90452700D01*
X182721316Y-90452700D02*
X182754649Y-90419366D01*
X182754649Y-90419366D02*
X182754649Y-90186033D01*
X182754649Y-90186033D02*
X182621316Y-90186033D01*
X183054649Y-90486033D02*
X183054649Y-89786033D01*
X183054649Y-89786033D02*
X183321316Y-89786033D01*
X183321316Y-89786033D02*
X183387983Y-89819366D01*
X183387983Y-89819366D02*
X183421316Y-89852700D01*
X183421316Y-89852700D02*
X183454649Y-89919366D01*
X183454649Y-89919366D02*
X183454649Y-90019366D01*
X183454649Y-90019366D02*
X183421316Y-90086033D01*
X183421316Y-90086033D02*
X183387983Y-90119366D01*
X183387983Y-90119366D02*
X183321316Y-90152700D01*
X183321316Y-90152700D02*
X183054649Y-90152700D01*
X183754649Y-90486033D02*
X183754649Y-89786033D01*
X184221316Y-89786033D02*
X184354649Y-89786033D01*
X184354649Y-89786033D02*
X184421316Y-89819366D01*
X184421316Y-89819366D02*
X184487982Y-89886033D01*
X184487982Y-89886033D02*
X184521316Y-90019366D01*
X184521316Y-90019366D02*
X184521316Y-90252700D01*
X184521316Y-90252700D02*
X184487982Y-90386033D01*
X184487982Y-90386033D02*
X184421316Y-90452700D01*
X184421316Y-90452700D02*
X184354649Y-90486033D01*
X184354649Y-90486033D02*
X184221316Y-90486033D01*
X184221316Y-90486033D02*
X184154649Y-90452700D01*
X184154649Y-90452700D02*
X184087982Y-90386033D01*
X184087982Y-90386033D02*
X184054649Y-90252700D01*
X184054649Y-90252700D02*
X184054649Y-90019366D01*
X184054649Y-90019366D02*
X184087982Y-89886033D01*
X184087982Y-89886033D02*
X184154649Y-89819366D01*
X184154649Y-89819366D02*
X184221316Y-89786033D01*
X185154649Y-89786033D02*
X184821315Y-89786033D01*
X184821315Y-89786033D02*
X184787982Y-90119366D01*
X184787982Y-90119366D02*
X184821315Y-90086033D01*
X184821315Y-90086033D02*
X184887982Y-90052700D01*
X184887982Y-90052700D02*
X185054649Y-90052700D01*
X185054649Y-90052700D02*
X185121315Y-90086033D01*
X185121315Y-90086033D02*
X185154649Y-90119366D01*
X185154649Y-90119366D02*
X185187982Y-90186033D01*
X185187982Y-90186033D02*
X185187982Y-90352700D01*
X185187982Y-90352700D02*
X185154649Y-90419366D01*
X185154649Y-90419366D02*
X185121315Y-90452700D01*
X185121315Y-90452700D02*
X185054649Y-90486033D01*
X185054649Y-90486033D02*
X184887982Y-90486033D01*
X184887982Y-90486033D02*
X184821315Y-90452700D01*
X184821315Y-90452700D02*
X184787982Y-90419366D01*
X163192017Y-94899366D02*
X163125350Y-94866033D01*
X163125350Y-94866033D02*
X163025350Y-94866033D01*
X163025350Y-94866033D02*
X162925350Y-94899366D01*
X162925350Y-94899366D02*
X162858684Y-94966033D01*
X162858684Y-94966033D02*
X162825350Y-95032700D01*
X162825350Y-95032700D02*
X162792017Y-95166033D01*
X162792017Y-95166033D02*
X162792017Y-95266033D01*
X162792017Y-95266033D02*
X162825350Y-95399366D01*
X162825350Y-95399366D02*
X162858684Y-95466033D01*
X162858684Y-95466033D02*
X162925350Y-95532700D01*
X162925350Y-95532700D02*
X163025350Y-95566033D01*
X163025350Y-95566033D02*
X163092017Y-95566033D01*
X163092017Y-95566033D02*
X163192017Y-95532700D01*
X163192017Y-95532700D02*
X163225350Y-95499366D01*
X163225350Y-95499366D02*
X163225350Y-95266033D01*
X163225350Y-95266033D02*
X163092017Y-95266033D01*
X163525350Y-95566033D02*
X163525350Y-94866033D01*
X163525350Y-94866033D02*
X163792017Y-94866033D01*
X163792017Y-94866033D02*
X163858684Y-94899366D01*
X163858684Y-94899366D02*
X163892017Y-94932700D01*
X163892017Y-94932700D02*
X163925350Y-94999366D01*
X163925350Y-94999366D02*
X163925350Y-95099366D01*
X163925350Y-95099366D02*
X163892017Y-95166033D01*
X163892017Y-95166033D02*
X163858684Y-95199366D01*
X163858684Y-95199366D02*
X163792017Y-95232700D01*
X163792017Y-95232700D02*
X163525350Y-95232700D01*
X164225350Y-95566033D02*
X164225350Y-94866033D01*
X164692017Y-94866033D02*
X164825350Y-94866033D01*
X164825350Y-94866033D02*
X164892017Y-94899366D01*
X164892017Y-94899366D02*
X164958683Y-94966033D01*
X164958683Y-94966033D02*
X164992017Y-95099366D01*
X164992017Y-95099366D02*
X164992017Y-95332700D01*
X164992017Y-95332700D02*
X164958683Y-95466033D01*
X164958683Y-95466033D02*
X164892017Y-95532700D01*
X164892017Y-95532700D02*
X164825350Y-95566033D01*
X164825350Y-95566033D02*
X164692017Y-95566033D01*
X164692017Y-95566033D02*
X164625350Y-95532700D01*
X164625350Y-95532700D02*
X164558683Y-95466033D01*
X164558683Y-95466033D02*
X164525350Y-95332700D01*
X164525350Y-95332700D02*
X164525350Y-95099366D01*
X164525350Y-95099366D02*
X164558683Y-94966033D01*
X164558683Y-94966033D02*
X164625350Y-94899366D01*
X164625350Y-94899366D02*
X164692017Y-94866033D01*
X165258683Y-94932700D02*
X165292016Y-94899366D01*
X165292016Y-94899366D02*
X165358683Y-94866033D01*
X165358683Y-94866033D02*
X165525350Y-94866033D01*
X165525350Y-94866033D02*
X165592016Y-94899366D01*
X165592016Y-94899366D02*
X165625350Y-94932700D01*
X165625350Y-94932700D02*
X165658683Y-94999366D01*
X165658683Y-94999366D02*
X165658683Y-95066033D01*
X165658683Y-95066033D02*
X165625350Y-95166033D01*
X165625350Y-95166033D02*
X165225350Y-95566033D01*
X165225350Y-95566033D02*
X165658683Y-95566033D01*
X165892017Y-94866033D02*
X166358683Y-94866033D01*
X166358683Y-94866033D02*
X166058683Y-95566033D01*
X182054649Y-72039366D02*
X181987982Y-72006033D01*
X181987982Y-72006033D02*
X181887982Y-72006033D01*
X181887982Y-72006033D02*
X181787982Y-72039366D01*
X181787982Y-72039366D02*
X181721316Y-72106033D01*
X181721316Y-72106033D02*
X181687982Y-72172700D01*
X181687982Y-72172700D02*
X181654649Y-72306033D01*
X181654649Y-72306033D02*
X181654649Y-72406033D01*
X181654649Y-72406033D02*
X181687982Y-72539366D01*
X181687982Y-72539366D02*
X181721316Y-72606033D01*
X181721316Y-72606033D02*
X181787982Y-72672700D01*
X181787982Y-72672700D02*
X181887982Y-72706033D01*
X181887982Y-72706033D02*
X181954649Y-72706033D01*
X181954649Y-72706033D02*
X182054649Y-72672700D01*
X182054649Y-72672700D02*
X182087982Y-72639366D01*
X182087982Y-72639366D02*
X182087982Y-72406033D01*
X182087982Y-72406033D02*
X181954649Y-72406033D01*
X182387982Y-72706033D02*
X182387982Y-72006033D01*
X182387982Y-72006033D02*
X182654649Y-72006033D01*
X182654649Y-72006033D02*
X182721316Y-72039366D01*
X182721316Y-72039366D02*
X182754649Y-72072700D01*
X182754649Y-72072700D02*
X182787982Y-72139366D01*
X182787982Y-72139366D02*
X182787982Y-72239366D01*
X182787982Y-72239366D02*
X182754649Y-72306033D01*
X182754649Y-72306033D02*
X182721316Y-72339366D01*
X182721316Y-72339366D02*
X182654649Y-72372700D01*
X182654649Y-72372700D02*
X182387982Y-72372700D01*
X183087982Y-72706033D02*
X183087982Y-72006033D01*
X183554649Y-72006033D02*
X183687982Y-72006033D01*
X183687982Y-72006033D02*
X183754649Y-72039366D01*
X183754649Y-72039366D02*
X183821315Y-72106033D01*
X183821315Y-72106033D02*
X183854649Y-72239366D01*
X183854649Y-72239366D02*
X183854649Y-72472700D01*
X183854649Y-72472700D02*
X183821315Y-72606033D01*
X183821315Y-72606033D02*
X183754649Y-72672700D01*
X183754649Y-72672700D02*
X183687982Y-72706033D01*
X183687982Y-72706033D02*
X183554649Y-72706033D01*
X183554649Y-72706033D02*
X183487982Y-72672700D01*
X183487982Y-72672700D02*
X183421315Y-72606033D01*
X183421315Y-72606033D02*
X183387982Y-72472700D01*
X183387982Y-72472700D02*
X183387982Y-72239366D01*
X183387982Y-72239366D02*
X183421315Y-72106033D01*
X183421315Y-72106033D02*
X183487982Y-72039366D01*
X183487982Y-72039366D02*
X183554649Y-72006033D01*
X184121315Y-72072700D02*
X184154648Y-72039366D01*
X184154648Y-72039366D02*
X184221315Y-72006033D01*
X184221315Y-72006033D02*
X184387982Y-72006033D01*
X184387982Y-72006033D02*
X184454648Y-72039366D01*
X184454648Y-72039366D02*
X184487982Y-72072700D01*
X184487982Y-72072700D02*
X184521315Y-72139366D01*
X184521315Y-72139366D02*
X184521315Y-72206033D01*
X184521315Y-72206033D02*
X184487982Y-72306033D01*
X184487982Y-72306033D02*
X184087982Y-72706033D01*
X184087982Y-72706033D02*
X184521315Y-72706033D01*
X184754649Y-72006033D02*
X185187982Y-72006033D01*
X185187982Y-72006033D02*
X184954649Y-72272700D01*
X184954649Y-72272700D02*
X185054649Y-72272700D01*
X185054649Y-72272700D02*
X185121315Y-72306033D01*
X185121315Y-72306033D02*
X185154649Y-72339366D01*
X185154649Y-72339366D02*
X185187982Y-72406033D01*
X185187982Y-72406033D02*
X185187982Y-72572700D01*
X185187982Y-72572700D02*
X185154649Y-72639366D01*
X185154649Y-72639366D02*
X185121315Y-72672700D01*
X185121315Y-72672700D02*
X185054649Y-72706033D01*
X185054649Y-72706033D02*
X184854649Y-72706033D01*
X184854649Y-72706033D02*
X184787982Y-72672700D01*
X184787982Y-72672700D02*
X184754649Y-72639366D01*
X183031921Y-104912438D02*
X182936683Y-104864819D01*
X182936683Y-104864819D02*
X182793826Y-104864819D01*
X182793826Y-104864819D02*
X182650969Y-104912438D01*
X182650969Y-104912438D02*
X182555731Y-105007676D01*
X182555731Y-105007676D02*
X182508112Y-105102914D01*
X182508112Y-105102914D02*
X182460493Y-105293390D01*
X182460493Y-105293390D02*
X182460493Y-105436247D01*
X182460493Y-105436247D02*
X182508112Y-105626723D01*
X182508112Y-105626723D02*
X182555731Y-105721961D01*
X182555731Y-105721961D02*
X182650969Y-105817200D01*
X182650969Y-105817200D02*
X182793826Y-105864819D01*
X182793826Y-105864819D02*
X182889064Y-105864819D01*
X182889064Y-105864819D02*
X183031921Y-105817200D01*
X183031921Y-105817200D02*
X183079540Y-105769580D01*
X183079540Y-105769580D02*
X183079540Y-105436247D01*
X183079540Y-105436247D02*
X182889064Y-105436247D01*
X183508112Y-105864819D02*
X183508112Y-104864819D01*
X183508112Y-104864819D02*
X184079540Y-105864819D01*
X184079540Y-105864819D02*
X184079540Y-104864819D01*
X184555731Y-105864819D02*
X184555731Y-104864819D01*
X184555731Y-104864819D02*
X184793826Y-104864819D01*
X184793826Y-104864819D02*
X184936683Y-104912438D01*
X184936683Y-104912438D02*
X185031921Y-105007676D01*
X185031921Y-105007676D02*
X185079540Y-105102914D01*
X185079540Y-105102914D02*
X185127159Y-105293390D01*
X185127159Y-105293390D02*
X185127159Y-105436247D01*
X185127159Y-105436247D02*
X185079540Y-105626723D01*
X185079540Y-105626723D02*
X185031921Y-105721961D01*
X185031921Y-105721961D02*
X184936683Y-105817200D01*
X184936683Y-105817200D02*
X184793826Y-105864819D01*
X184793826Y-105864819D02*
X184555731Y-105864819D01*
X163192017Y-99979366D02*
X163125350Y-99946033D01*
X163125350Y-99946033D02*
X163025350Y-99946033D01*
X163025350Y-99946033D02*
X162925350Y-99979366D01*
X162925350Y-99979366D02*
X162858684Y-100046033D01*
X162858684Y-100046033D02*
X162825350Y-100112700D01*
X162825350Y-100112700D02*
X162792017Y-100246033D01*
X162792017Y-100246033D02*
X162792017Y-100346033D01*
X162792017Y-100346033D02*
X162825350Y-100479366D01*
X162825350Y-100479366D02*
X162858684Y-100546033D01*
X162858684Y-100546033D02*
X162925350Y-100612700D01*
X162925350Y-100612700D02*
X163025350Y-100646033D01*
X163025350Y-100646033D02*
X163092017Y-100646033D01*
X163092017Y-100646033D02*
X163192017Y-100612700D01*
X163192017Y-100612700D02*
X163225350Y-100579366D01*
X163225350Y-100579366D02*
X163225350Y-100346033D01*
X163225350Y-100346033D02*
X163092017Y-100346033D01*
X163525350Y-100646033D02*
X163525350Y-99946033D01*
X163525350Y-99946033D02*
X163792017Y-99946033D01*
X163792017Y-99946033D02*
X163858684Y-99979366D01*
X163858684Y-99979366D02*
X163892017Y-100012700D01*
X163892017Y-100012700D02*
X163925350Y-100079366D01*
X163925350Y-100079366D02*
X163925350Y-100179366D01*
X163925350Y-100179366D02*
X163892017Y-100246033D01*
X163892017Y-100246033D02*
X163858684Y-100279366D01*
X163858684Y-100279366D02*
X163792017Y-100312700D01*
X163792017Y-100312700D02*
X163525350Y-100312700D01*
X164225350Y-100646033D02*
X164225350Y-99946033D01*
X164692017Y-99946033D02*
X164825350Y-99946033D01*
X164825350Y-99946033D02*
X164892017Y-99979366D01*
X164892017Y-99979366D02*
X164958683Y-100046033D01*
X164958683Y-100046033D02*
X164992017Y-100179366D01*
X164992017Y-100179366D02*
X164992017Y-100412700D01*
X164992017Y-100412700D02*
X164958683Y-100546033D01*
X164958683Y-100546033D02*
X164892017Y-100612700D01*
X164892017Y-100612700D02*
X164825350Y-100646033D01*
X164825350Y-100646033D02*
X164692017Y-100646033D01*
X164692017Y-100646033D02*
X164625350Y-100612700D01*
X164625350Y-100612700D02*
X164558683Y-100546033D01*
X164558683Y-100546033D02*
X164525350Y-100412700D01*
X164525350Y-100412700D02*
X164525350Y-100179366D01*
X164525350Y-100179366D02*
X164558683Y-100046033D01*
X164558683Y-100046033D02*
X164625350Y-99979366D01*
X164625350Y-99979366D02*
X164692017Y-99946033D01*
X165658683Y-100646033D02*
X165258683Y-100646033D01*
X165458683Y-100646033D02*
X165458683Y-99946033D01*
X165458683Y-99946033D02*
X165392016Y-100046033D01*
X165392016Y-100046033D02*
X165325350Y-100112700D01*
X165325350Y-100112700D02*
X165258683Y-100146033D01*
X165925350Y-100012700D02*
X165958683Y-99979366D01*
X165958683Y-99979366D02*
X166025350Y-99946033D01*
X166025350Y-99946033D02*
X166192017Y-99946033D01*
X166192017Y-99946033D02*
X166258683Y-99979366D01*
X166258683Y-99979366D02*
X166292017Y-100012700D01*
X166292017Y-100012700D02*
X166325350Y-100079366D01*
X166325350Y-100079366D02*
X166325350Y-100146033D01*
X166325350Y-100146033D02*
X166292017Y-100246033D01*
X166292017Y-100246033D02*
X165892017Y-100646033D01*
X165892017Y-100646033D02*
X166325350Y-100646033D01*
X167125350Y-99912700D02*
X166525350Y-100812700D01*
X167358683Y-100646033D02*
X167358683Y-99946033D01*
X167358683Y-99946033D02*
X167592017Y-100446033D01*
X167592017Y-100446033D02*
X167825350Y-99946033D01*
X167825350Y-99946033D02*
X167825350Y-100646033D01*
X168058683Y-99946033D02*
X168458683Y-99946033D01*
X168258683Y-100646033D02*
X168258683Y-99946033D01*
X168692016Y-100646033D02*
X168692016Y-99946033D01*
X168692016Y-99946033D02*
X168858683Y-99946033D01*
X168858683Y-99946033D02*
X168958683Y-99979366D01*
X168958683Y-99979366D02*
X169025350Y-100046033D01*
X169025350Y-100046033D02*
X169058683Y-100112700D01*
X169058683Y-100112700D02*
X169092016Y-100246033D01*
X169092016Y-100246033D02*
X169092016Y-100346033D01*
X169092016Y-100346033D02*
X169058683Y-100479366D01*
X169058683Y-100479366D02*
X169025350Y-100546033D01*
X169025350Y-100546033D02*
X168958683Y-100612700D01*
X168958683Y-100612700D02*
X168858683Y-100646033D01*
X168858683Y-100646033D02*
X168692016Y-100646033D01*
X169392016Y-100646033D02*
X169392016Y-99946033D01*
X182054649Y-82199366D02*
X181987982Y-82166033D01*
X181987982Y-82166033D02*
X181887982Y-82166033D01*
X181887982Y-82166033D02*
X181787982Y-82199366D01*
X181787982Y-82199366D02*
X181721316Y-82266033D01*
X181721316Y-82266033D02*
X181687982Y-82332700D01*
X181687982Y-82332700D02*
X181654649Y-82466033D01*
X181654649Y-82466033D02*
X181654649Y-82566033D01*
X181654649Y-82566033D02*
X181687982Y-82699366D01*
X181687982Y-82699366D02*
X181721316Y-82766033D01*
X181721316Y-82766033D02*
X181787982Y-82832700D01*
X181787982Y-82832700D02*
X181887982Y-82866033D01*
X181887982Y-82866033D02*
X181954649Y-82866033D01*
X181954649Y-82866033D02*
X182054649Y-82832700D01*
X182054649Y-82832700D02*
X182087982Y-82799366D01*
X182087982Y-82799366D02*
X182087982Y-82566033D01*
X182087982Y-82566033D02*
X181954649Y-82566033D01*
X182387982Y-82866033D02*
X182387982Y-82166033D01*
X182387982Y-82166033D02*
X182654649Y-82166033D01*
X182654649Y-82166033D02*
X182721316Y-82199366D01*
X182721316Y-82199366D02*
X182754649Y-82232700D01*
X182754649Y-82232700D02*
X182787982Y-82299366D01*
X182787982Y-82299366D02*
X182787982Y-82399366D01*
X182787982Y-82399366D02*
X182754649Y-82466033D01*
X182754649Y-82466033D02*
X182721316Y-82499366D01*
X182721316Y-82499366D02*
X182654649Y-82532700D01*
X182654649Y-82532700D02*
X182387982Y-82532700D01*
X183087982Y-82866033D02*
X183087982Y-82166033D01*
X183554649Y-82166033D02*
X183687982Y-82166033D01*
X183687982Y-82166033D02*
X183754649Y-82199366D01*
X183754649Y-82199366D02*
X183821315Y-82266033D01*
X183821315Y-82266033D02*
X183854649Y-82399366D01*
X183854649Y-82399366D02*
X183854649Y-82632700D01*
X183854649Y-82632700D02*
X183821315Y-82766033D01*
X183821315Y-82766033D02*
X183754649Y-82832700D01*
X183754649Y-82832700D02*
X183687982Y-82866033D01*
X183687982Y-82866033D02*
X183554649Y-82866033D01*
X183554649Y-82866033D02*
X183487982Y-82832700D01*
X183487982Y-82832700D02*
X183421315Y-82766033D01*
X183421315Y-82766033D02*
X183387982Y-82632700D01*
X183387982Y-82632700D02*
X183387982Y-82399366D01*
X183387982Y-82399366D02*
X183421315Y-82266033D01*
X183421315Y-82266033D02*
X183487982Y-82199366D01*
X183487982Y-82199366D02*
X183554649Y-82166033D01*
X184121315Y-82232700D02*
X184154648Y-82199366D01*
X184154648Y-82199366D02*
X184221315Y-82166033D01*
X184221315Y-82166033D02*
X184387982Y-82166033D01*
X184387982Y-82166033D02*
X184454648Y-82199366D01*
X184454648Y-82199366D02*
X184487982Y-82232700D01*
X184487982Y-82232700D02*
X184521315Y-82299366D01*
X184521315Y-82299366D02*
X184521315Y-82366033D01*
X184521315Y-82366033D02*
X184487982Y-82466033D01*
X184487982Y-82466033D02*
X184087982Y-82866033D01*
X184087982Y-82866033D02*
X184521315Y-82866033D01*
X185187982Y-82866033D02*
X184787982Y-82866033D01*
X184987982Y-82866033D02*
X184987982Y-82166033D01*
X184987982Y-82166033D02*
X184921315Y-82266033D01*
X184921315Y-82266033D02*
X184854649Y-82332700D01*
X184854649Y-82332700D02*
X184787982Y-82366033D01*
X178521316Y-79659366D02*
X178454649Y-79626033D01*
X178454649Y-79626033D02*
X178354649Y-79626033D01*
X178354649Y-79626033D02*
X178254649Y-79659366D01*
X178254649Y-79659366D02*
X178187983Y-79726033D01*
X178187983Y-79726033D02*
X178154649Y-79792700D01*
X178154649Y-79792700D02*
X178121316Y-79926033D01*
X178121316Y-79926033D02*
X178121316Y-80026033D01*
X178121316Y-80026033D02*
X178154649Y-80159366D01*
X178154649Y-80159366D02*
X178187983Y-80226033D01*
X178187983Y-80226033D02*
X178254649Y-80292700D01*
X178254649Y-80292700D02*
X178354649Y-80326033D01*
X178354649Y-80326033D02*
X178421316Y-80326033D01*
X178421316Y-80326033D02*
X178521316Y-80292700D01*
X178521316Y-80292700D02*
X178554649Y-80259366D01*
X178554649Y-80259366D02*
X178554649Y-80026033D01*
X178554649Y-80026033D02*
X178421316Y-80026033D01*
X178854649Y-80326033D02*
X178854649Y-79626033D01*
X178854649Y-79626033D02*
X179121316Y-79626033D01*
X179121316Y-79626033D02*
X179187983Y-79659366D01*
X179187983Y-79659366D02*
X179221316Y-79692700D01*
X179221316Y-79692700D02*
X179254649Y-79759366D01*
X179254649Y-79759366D02*
X179254649Y-79859366D01*
X179254649Y-79859366D02*
X179221316Y-79926033D01*
X179221316Y-79926033D02*
X179187983Y-79959366D01*
X179187983Y-79959366D02*
X179121316Y-79992700D01*
X179121316Y-79992700D02*
X178854649Y-79992700D01*
X179554649Y-80326033D02*
X179554649Y-79626033D01*
X180021316Y-79626033D02*
X180154649Y-79626033D01*
X180154649Y-79626033D02*
X180221316Y-79659366D01*
X180221316Y-79659366D02*
X180287982Y-79726033D01*
X180287982Y-79726033D02*
X180321316Y-79859366D01*
X180321316Y-79859366D02*
X180321316Y-80092700D01*
X180321316Y-80092700D02*
X180287982Y-80226033D01*
X180287982Y-80226033D02*
X180221316Y-80292700D01*
X180221316Y-80292700D02*
X180154649Y-80326033D01*
X180154649Y-80326033D02*
X180021316Y-80326033D01*
X180021316Y-80326033D02*
X179954649Y-80292700D01*
X179954649Y-80292700D02*
X179887982Y-80226033D01*
X179887982Y-80226033D02*
X179854649Y-80092700D01*
X179854649Y-80092700D02*
X179854649Y-79859366D01*
X179854649Y-79859366D02*
X179887982Y-79726033D01*
X179887982Y-79726033D02*
X179954649Y-79659366D01*
X179954649Y-79659366D02*
X180021316Y-79626033D01*
X180554649Y-79626033D02*
X180987982Y-79626033D01*
X180987982Y-79626033D02*
X180754649Y-79892700D01*
X180754649Y-79892700D02*
X180854649Y-79892700D01*
X180854649Y-79892700D02*
X180921315Y-79926033D01*
X180921315Y-79926033D02*
X180954649Y-79959366D01*
X180954649Y-79959366D02*
X180987982Y-80026033D01*
X180987982Y-80026033D02*
X180987982Y-80192700D01*
X180987982Y-80192700D02*
X180954649Y-80259366D01*
X180954649Y-80259366D02*
X180921315Y-80292700D01*
X180921315Y-80292700D02*
X180854649Y-80326033D01*
X180854649Y-80326033D02*
X180654649Y-80326033D01*
X180654649Y-80326033D02*
X180587982Y-80292700D01*
X180587982Y-80292700D02*
X180554649Y-80259366D01*
X181787982Y-79592700D02*
X181187982Y-80492700D01*
X182021315Y-79626033D02*
X182021315Y-80192700D01*
X182021315Y-80192700D02*
X182054649Y-80259366D01*
X182054649Y-80259366D02*
X182087982Y-80292700D01*
X182087982Y-80292700D02*
X182154649Y-80326033D01*
X182154649Y-80326033D02*
X182287982Y-80326033D01*
X182287982Y-80326033D02*
X182354649Y-80292700D01*
X182354649Y-80292700D02*
X182387982Y-80259366D01*
X182387982Y-80259366D02*
X182421315Y-80192700D01*
X182421315Y-80192700D02*
X182421315Y-79626033D01*
X182887982Y-79626033D02*
X182954648Y-79626033D01*
X182954648Y-79626033D02*
X183021315Y-79659366D01*
X183021315Y-79659366D02*
X183054648Y-79692700D01*
X183054648Y-79692700D02*
X183087982Y-79759366D01*
X183087982Y-79759366D02*
X183121315Y-79892700D01*
X183121315Y-79892700D02*
X183121315Y-80059366D01*
X183121315Y-80059366D02*
X183087982Y-80192700D01*
X183087982Y-80192700D02*
X183054648Y-80259366D01*
X183054648Y-80259366D02*
X183021315Y-80292700D01*
X183021315Y-80292700D02*
X182954648Y-80326033D01*
X182954648Y-80326033D02*
X182887982Y-80326033D01*
X182887982Y-80326033D02*
X182821315Y-80292700D01*
X182821315Y-80292700D02*
X182787982Y-80259366D01*
X182787982Y-80259366D02*
X182754648Y-80192700D01*
X182754648Y-80192700D02*
X182721315Y-80059366D01*
X182721315Y-80059366D02*
X182721315Y-79892700D01*
X182721315Y-79892700D02*
X182754648Y-79759366D01*
X182754648Y-79759366D02*
X182787982Y-79692700D01*
X182787982Y-79692700D02*
X182821315Y-79659366D01*
X182821315Y-79659366D02*
X182887982Y-79626033D01*
X183821315Y-80326033D02*
X183587982Y-79992700D01*
X183421315Y-80326033D02*
X183421315Y-79626033D01*
X183421315Y-79626033D02*
X183687982Y-79626033D01*
X183687982Y-79626033D02*
X183754649Y-79659366D01*
X183754649Y-79659366D02*
X183787982Y-79692700D01*
X183787982Y-79692700D02*
X183821315Y-79759366D01*
X183821315Y-79759366D02*
X183821315Y-79859366D01*
X183821315Y-79859366D02*
X183787982Y-79926033D01*
X183787982Y-79926033D02*
X183754649Y-79959366D01*
X183754649Y-79959366D02*
X183687982Y-79992700D01*
X183687982Y-79992700D02*
X183421315Y-79992700D01*
X184054649Y-79626033D02*
X184521315Y-80326033D01*
X184521315Y-79626033D02*
X184054649Y-80326033D01*
X184787982Y-80326033D02*
X184787982Y-79626033D01*
X184787982Y-79626033D02*
X184954649Y-79626033D01*
X184954649Y-79626033D02*
X185054649Y-79659366D01*
X185054649Y-79659366D02*
X185121316Y-79726033D01*
X185121316Y-79726033D02*
X185154649Y-79792700D01*
X185154649Y-79792700D02*
X185187982Y-79926033D01*
X185187982Y-79926033D02*
X185187982Y-80026033D01*
X185187982Y-80026033D02*
X185154649Y-80159366D01*
X185154649Y-80159366D02*
X185121316Y-80226033D01*
X185121316Y-80226033D02*
X185054649Y-80292700D01*
X185054649Y-80292700D02*
X184954649Y-80326033D01*
X184954649Y-80326033D02*
X184787982Y-80326033D01*
X163192017Y-92359366D02*
X163125350Y-92326033D01*
X163125350Y-92326033D02*
X163025350Y-92326033D01*
X163025350Y-92326033D02*
X162925350Y-92359366D01*
X162925350Y-92359366D02*
X162858684Y-92426033D01*
X162858684Y-92426033D02*
X162825350Y-92492700D01*
X162825350Y-92492700D02*
X162792017Y-92626033D01*
X162792017Y-92626033D02*
X162792017Y-92726033D01*
X162792017Y-92726033D02*
X162825350Y-92859366D01*
X162825350Y-92859366D02*
X162858684Y-92926033D01*
X162858684Y-92926033D02*
X162925350Y-92992700D01*
X162925350Y-92992700D02*
X163025350Y-93026033D01*
X163025350Y-93026033D02*
X163092017Y-93026033D01*
X163092017Y-93026033D02*
X163192017Y-92992700D01*
X163192017Y-92992700D02*
X163225350Y-92959366D01*
X163225350Y-92959366D02*
X163225350Y-92726033D01*
X163225350Y-92726033D02*
X163092017Y-92726033D01*
X163525350Y-93026033D02*
X163525350Y-92326033D01*
X163525350Y-92326033D02*
X163792017Y-92326033D01*
X163792017Y-92326033D02*
X163858684Y-92359366D01*
X163858684Y-92359366D02*
X163892017Y-92392700D01*
X163892017Y-92392700D02*
X163925350Y-92459366D01*
X163925350Y-92459366D02*
X163925350Y-92559366D01*
X163925350Y-92559366D02*
X163892017Y-92626033D01*
X163892017Y-92626033D02*
X163858684Y-92659366D01*
X163858684Y-92659366D02*
X163792017Y-92692700D01*
X163792017Y-92692700D02*
X163525350Y-92692700D01*
X164225350Y-93026033D02*
X164225350Y-92326033D01*
X164692017Y-92326033D02*
X164825350Y-92326033D01*
X164825350Y-92326033D02*
X164892017Y-92359366D01*
X164892017Y-92359366D02*
X164958683Y-92426033D01*
X164958683Y-92426033D02*
X164992017Y-92559366D01*
X164992017Y-92559366D02*
X164992017Y-92792700D01*
X164992017Y-92792700D02*
X164958683Y-92926033D01*
X164958683Y-92926033D02*
X164892017Y-92992700D01*
X164892017Y-92992700D02*
X164825350Y-93026033D01*
X164825350Y-93026033D02*
X164692017Y-93026033D01*
X164692017Y-93026033D02*
X164625350Y-92992700D01*
X164625350Y-92992700D02*
X164558683Y-92926033D01*
X164558683Y-92926033D02*
X164525350Y-92792700D01*
X164525350Y-92792700D02*
X164525350Y-92559366D01*
X164525350Y-92559366D02*
X164558683Y-92426033D01*
X164558683Y-92426033D02*
X164625350Y-92359366D01*
X164625350Y-92359366D02*
X164692017Y-92326033D01*
X165258683Y-92392700D02*
X165292016Y-92359366D01*
X165292016Y-92359366D02*
X165358683Y-92326033D01*
X165358683Y-92326033D02*
X165525350Y-92326033D01*
X165525350Y-92326033D02*
X165592016Y-92359366D01*
X165592016Y-92359366D02*
X165625350Y-92392700D01*
X165625350Y-92392700D02*
X165658683Y-92459366D01*
X165658683Y-92459366D02*
X165658683Y-92526033D01*
X165658683Y-92526033D02*
X165625350Y-92626033D01*
X165625350Y-92626033D02*
X165225350Y-93026033D01*
X165225350Y-93026033D02*
X165658683Y-93026033D01*
X166258683Y-92326033D02*
X166125350Y-92326033D01*
X166125350Y-92326033D02*
X166058683Y-92359366D01*
X166058683Y-92359366D02*
X166025350Y-92392700D01*
X166025350Y-92392700D02*
X165958683Y-92492700D01*
X165958683Y-92492700D02*
X165925350Y-92626033D01*
X165925350Y-92626033D02*
X165925350Y-92892700D01*
X165925350Y-92892700D02*
X165958683Y-92959366D01*
X165958683Y-92959366D02*
X165992017Y-92992700D01*
X165992017Y-92992700D02*
X166058683Y-93026033D01*
X166058683Y-93026033D02*
X166192017Y-93026033D01*
X166192017Y-93026033D02*
X166258683Y-92992700D01*
X166258683Y-92992700D02*
X166292017Y-92959366D01*
X166292017Y-92959366D02*
X166325350Y-92892700D01*
X166325350Y-92892700D02*
X166325350Y-92726033D01*
X166325350Y-92726033D02*
X166292017Y-92659366D01*
X166292017Y-92659366D02*
X166258683Y-92626033D01*
X166258683Y-92626033D02*
X166192017Y-92592700D01*
X166192017Y-92592700D02*
X166058683Y-92592700D01*
X166058683Y-92592700D02*
X165992017Y-92626033D01*
X165992017Y-92626033D02*
X165958683Y-92659366D01*
X165958683Y-92659366D02*
X165925350Y-92726033D01*
X182054649Y-87279366D02*
X181987982Y-87246033D01*
X181987982Y-87246033D02*
X181887982Y-87246033D01*
X181887982Y-87246033D02*
X181787982Y-87279366D01*
X181787982Y-87279366D02*
X181721316Y-87346033D01*
X181721316Y-87346033D02*
X181687982Y-87412700D01*
X181687982Y-87412700D02*
X181654649Y-87546033D01*
X181654649Y-87546033D02*
X181654649Y-87646033D01*
X181654649Y-87646033D02*
X181687982Y-87779366D01*
X181687982Y-87779366D02*
X181721316Y-87846033D01*
X181721316Y-87846033D02*
X181787982Y-87912700D01*
X181787982Y-87912700D02*
X181887982Y-87946033D01*
X181887982Y-87946033D02*
X181954649Y-87946033D01*
X181954649Y-87946033D02*
X182054649Y-87912700D01*
X182054649Y-87912700D02*
X182087982Y-87879366D01*
X182087982Y-87879366D02*
X182087982Y-87646033D01*
X182087982Y-87646033D02*
X181954649Y-87646033D01*
X182387982Y-87946033D02*
X182387982Y-87246033D01*
X182387982Y-87246033D02*
X182654649Y-87246033D01*
X182654649Y-87246033D02*
X182721316Y-87279366D01*
X182721316Y-87279366D02*
X182754649Y-87312700D01*
X182754649Y-87312700D02*
X182787982Y-87379366D01*
X182787982Y-87379366D02*
X182787982Y-87479366D01*
X182787982Y-87479366D02*
X182754649Y-87546033D01*
X182754649Y-87546033D02*
X182721316Y-87579366D01*
X182721316Y-87579366D02*
X182654649Y-87612700D01*
X182654649Y-87612700D02*
X182387982Y-87612700D01*
X183087982Y-87946033D02*
X183087982Y-87246033D01*
X183554649Y-87246033D02*
X183687982Y-87246033D01*
X183687982Y-87246033D02*
X183754649Y-87279366D01*
X183754649Y-87279366D02*
X183821315Y-87346033D01*
X183821315Y-87346033D02*
X183854649Y-87479366D01*
X183854649Y-87479366D02*
X183854649Y-87712700D01*
X183854649Y-87712700D02*
X183821315Y-87846033D01*
X183821315Y-87846033D02*
X183754649Y-87912700D01*
X183754649Y-87912700D02*
X183687982Y-87946033D01*
X183687982Y-87946033D02*
X183554649Y-87946033D01*
X183554649Y-87946033D02*
X183487982Y-87912700D01*
X183487982Y-87912700D02*
X183421315Y-87846033D01*
X183421315Y-87846033D02*
X183387982Y-87712700D01*
X183387982Y-87712700D02*
X183387982Y-87479366D01*
X183387982Y-87479366D02*
X183421315Y-87346033D01*
X183421315Y-87346033D02*
X183487982Y-87279366D01*
X183487982Y-87279366D02*
X183554649Y-87246033D01*
X184521315Y-87946033D02*
X184121315Y-87946033D01*
X184321315Y-87946033D02*
X184321315Y-87246033D01*
X184321315Y-87246033D02*
X184254648Y-87346033D01*
X184254648Y-87346033D02*
X184187982Y-87412700D01*
X184187982Y-87412700D02*
X184121315Y-87446033D01*
X184921315Y-87546033D02*
X184854649Y-87512700D01*
X184854649Y-87512700D02*
X184821315Y-87479366D01*
X184821315Y-87479366D02*
X184787982Y-87412700D01*
X184787982Y-87412700D02*
X184787982Y-87379366D01*
X184787982Y-87379366D02*
X184821315Y-87312700D01*
X184821315Y-87312700D02*
X184854649Y-87279366D01*
X184854649Y-87279366D02*
X184921315Y-87246033D01*
X184921315Y-87246033D02*
X185054649Y-87246033D01*
X185054649Y-87246033D02*
X185121315Y-87279366D01*
X185121315Y-87279366D02*
X185154649Y-87312700D01*
X185154649Y-87312700D02*
X185187982Y-87379366D01*
X185187982Y-87379366D02*
X185187982Y-87412700D01*
X185187982Y-87412700D02*
X185154649Y-87479366D01*
X185154649Y-87479366D02*
X185121315Y-87512700D01*
X185121315Y-87512700D02*
X185054649Y-87546033D01*
X185054649Y-87546033D02*
X184921315Y-87546033D01*
X184921315Y-87546033D02*
X184854649Y-87579366D01*
X184854649Y-87579366D02*
X184821315Y-87612700D01*
X184821315Y-87612700D02*
X184787982Y-87679366D01*
X184787982Y-87679366D02*
X184787982Y-87812700D01*
X184787982Y-87812700D02*
X184821315Y-87879366D01*
X184821315Y-87879366D02*
X184854649Y-87912700D01*
X184854649Y-87912700D02*
X184921315Y-87946033D01*
X184921315Y-87946033D02*
X185054649Y-87946033D01*
X185054649Y-87946033D02*
X185121315Y-87912700D01*
X185121315Y-87912700D02*
X185154649Y-87879366D01*
X185154649Y-87879366D02*
X185187982Y-87812700D01*
X185187982Y-87812700D02*
X185187982Y-87679366D01*
X185187982Y-87679366D02*
X185154649Y-87612700D01*
X185154649Y-87612700D02*
X185121315Y-87579366D01*
X185121315Y-87579366D02*
X185054649Y-87546033D01*
X163192017Y-97439366D02*
X163125350Y-97406033D01*
X163125350Y-97406033D02*
X163025350Y-97406033D01*
X163025350Y-97406033D02*
X162925350Y-97439366D01*
X162925350Y-97439366D02*
X162858684Y-97506033D01*
X162858684Y-97506033D02*
X162825350Y-97572700D01*
X162825350Y-97572700D02*
X162792017Y-97706033D01*
X162792017Y-97706033D02*
X162792017Y-97806033D01*
X162792017Y-97806033D02*
X162825350Y-97939366D01*
X162825350Y-97939366D02*
X162858684Y-98006033D01*
X162858684Y-98006033D02*
X162925350Y-98072700D01*
X162925350Y-98072700D02*
X163025350Y-98106033D01*
X163025350Y-98106033D02*
X163092017Y-98106033D01*
X163092017Y-98106033D02*
X163192017Y-98072700D01*
X163192017Y-98072700D02*
X163225350Y-98039366D01*
X163225350Y-98039366D02*
X163225350Y-97806033D01*
X163225350Y-97806033D02*
X163092017Y-97806033D01*
X163525350Y-98106033D02*
X163525350Y-97406033D01*
X163525350Y-97406033D02*
X163792017Y-97406033D01*
X163792017Y-97406033D02*
X163858684Y-97439366D01*
X163858684Y-97439366D02*
X163892017Y-97472700D01*
X163892017Y-97472700D02*
X163925350Y-97539366D01*
X163925350Y-97539366D02*
X163925350Y-97639366D01*
X163925350Y-97639366D02*
X163892017Y-97706033D01*
X163892017Y-97706033D02*
X163858684Y-97739366D01*
X163858684Y-97739366D02*
X163792017Y-97772700D01*
X163792017Y-97772700D02*
X163525350Y-97772700D01*
X164225350Y-98106033D02*
X164225350Y-97406033D01*
X164692017Y-97406033D02*
X164825350Y-97406033D01*
X164825350Y-97406033D02*
X164892017Y-97439366D01*
X164892017Y-97439366D02*
X164958683Y-97506033D01*
X164958683Y-97506033D02*
X164992017Y-97639366D01*
X164992017Y-97639366D02*
X164992017Y-97872700D01*
X164992017Y-97872700D02*
X164958683Y-98006033D01*
X164958683Y-98006033D02*
X164892017Y-98072700D01*
X164892017Y-98072700D02*
X164825350Y-98106033D01*
X164825350Y-98106033D02*
X164692017Y-98106033D01*
X164692017Y-98106033D02*
X164625350Y-98072700D01*
X164625350Y-98072700D02*
X164558683Y-98006033D01*
X164558683Y-98006033D02*
X164525350Y-97872700D01*
X164525350Y-97872700D02*
X164525350Y-97639366D01*
X164525350Y-97639366D02*
X164558683Y-97506033D01*
X164558683Y-97506033D02*
X164625350Y-97439366D01*
X164625350Y-97439366D02*
X164692017Y-97406033D01*
X165658683Y-98106033D02*
X165258683Y-98106033D01*
X165458683Y-98106033D02*
X165458683Y-97406033D01*
X165458683Y-97406033D02*
X165392016Y-97506033D01*
X165392016Y-97506033D02*
X165325350Y-97572700D01*
X165325350Y-97572700D02*
X165258683Y-97606033D01*
X166258683Y-97639366D02*
X166258683Y-98106033D01*
X166092017Y-97372700D02*
X165925350Y-97872700D01*
X165925350Y-97872700D02*
X166358683Y-97872700D01*
X167125350Y-97372700D02*
X166525350Y-98272700D01*
X167358683Y-98106033D02*
X167358683Y-97406033D01*
X167358683Y-97406033D02*
X167592017Y-97906033D01*
X167592017Y-97906033D02*
X167825350Y-97406033D01*
X167825350Y-97406033D02*
X167825350Y-98106033D01*
X168058683Y-97406033D02*
X168458683Y-97406033D01*
X168258683Y-98106033D02*
X168258683Y-97406033D01*
X168692016Y-98106033D02*
X168692016Y-97406033D01*
X168692016Y-97406033D02*
X168925350Y-97906033D01*
X168925350Y-97906033D02*
X169158683Y-97406033D01*
X169158683Y-97406033D02*
X169158683Y-98106033D01*
X169458683Y-98072700D02*
X169558683Y-98106033D01*
X169558683Y-98106033D02*
X169725350Y-98106033D01*
X169725350Y-98106033D02*
X169792016Y-98072700D01*
X169792016Y-98072700D02*
X169825350Y-98039366D01*
X169825350Y-98039366D02*
X169858683Y-97972700D01*
X169858683Y-97972700D02*
X169858683Y-97906033D01*
X169858683Y-97906033D02*
X169825350Y-97839366D01*
X169825350Y-97839366D02*
X169792016Y-97806033D01*
X169792016Y-97806033D02*
X169725350Y-97772700D01*
X169725350Y-97772700D02*
X169592016Y-97739366D01*
X169592016Y-97739366D02*
X169525350Y-97706033D01*
X169525350Y-97706033D02*
X169492016Y-97672700D01*
X169492016Y-97672700D02*
X169458683Y-97606033D01*
X169458683Y-97606033D02*
X169458683Y-97539366D01*
X169458683Y-97539366D02*
X169492016Y-97472700D01*
X169492016Y-97472700D02*
X169525350Y-97439366D01*
X169525350Y-97439366D02*
X169592016Y-97406033D01*
X169592016Y-97406033D02*
X169758683Y-97406033D01*
X169758683Y-97406033D02*
X169858683Y-97439366D01*
D11*
X141303333Y-112302580D02*
X141303333Y-111588295D01*
X141303333Y-111588295D02*
X141350952Y-111445438D01*
X141350952Y-111445438D02*
X141446190Y-111350200D01*
X141446190Y-111350200D02*
X141589047Y-111302580D01*
X141589047Y-111302580D02*
X141684285Y-111302580D01*
X140303333Y-111302580D02*
X140874761Y-111302580D01*
X140589047Y-111302580D02*
X140589047Y-112302580D01*
X140589047Y-112302580D02*
X140684285Y-112159723D01*
X140684285Y-112159723D02*
X140779523Y-112064485D01*
X140779523Y-112064485D02*
X140874761Y-112016866D01*
D12*
X147153333Y-80634819D02*
X146820000Y-80158628D01*
X146581905Y-80634819D02*
X146581905Y-79634819D01*
X146581905Y-79634819D02*
X146962857Y-79634819D01*
X146962857Y-79634819D02*
X147058095Y-79682438D01*
X147058095Y-79682438D02*
X147105714Y-79730057D01*
X147105714Y-79730057D02*
X147153333Y-79825295D01*
X147153333Y-79825295D02*
X147153333Y-79968152D01*
X147153333Y-79968152D02*
X147105714Y-80063390D01*
X147105714Y-80063390D02*
X147058095Y-80111009D01*
X147058095Y-80111009D02*
X146962857Y-80158628D01*
X146962857Y-80158628D02*
X146581905Y-80158628D01*
X147534286Y-79730057D02*
X147581905Y-79682438D01*
X147581905Y-79682438D02*
X147677143Y-79634819D01*
X147677143Y-79634819D02*
X147915238Y-79634819D01*
X147915238Y-79634819D02*
X148010476Y-79682438D01*
X148010476Y-79682438D02*
X148058095Y-79730057D01*
X148058095Y-79730057D02*
X148105714Y-79825295D01*
X148105714Y-79825295D02*
X148105714Y-79920533D01*
X148105714Y-79920533D02*
X148058095Y-80063390D01*
X148058095Y-80063390D02*
X147486667Y-80634819D01*
X147486667Y-80634819D02*
X148105714Y-80634819D01*
X143343333Y-86984819D02*
X143010000Y-86508628D01*
X142771905Y-86984819D02*
X142771905Y-85984819D01*
X142771905Y-85984819D02*
X143152857Y-85984819D01*
X143152857Y-85984819D02*
X143248095Y-86032438D01*
X143248095Y-86032438D02*
X143295714Y-86080057D01*
X143295714Y-86080057D02*
X143343333Y-86175295D01*
X143343333Y-86175295D02*
X143343333Y-86318152D01*
X143343333Y-86318152D02*
X143295714Y-86413390D01*
X143295714Y-86413390D02*
X143248095Y-86461009D01*
X143248095Y-86461009D02*
X143152857Y-86508628D01*
X143152857Y-86508628D02*
X142771905Y-86508628D01*
X144295714Y-86984819D02*
X143724286Y-86984819D01*
X144010000Y-86984819D02*
X144010000Y-85984819D01*
X144010000Y-85984819D02*
X143914762Y-86127676D01*
X143914762Y-86127676D02*
X143819524Y-86222914D01*
X143819524Y-86222914D02*
X143724286Y-86270533D01*
X141430476Y-51024819D02*
X141430476Y-50024819D01*
X141430476Y-50024819D02*
X141763809Y-50739104D01*
X141763809Y-50739104D02*
X142097142Y-50024819D01*
X142097142Y-50024819D02*
X142097142Y-51024819D01*
X143097142Y-51024819D02*
X142525714Y-51024819D01*
X142811428Y-51024819D02*
X142811428Y-50024819D01*
X142811428Y-50024819D02*
X142716190Y-50167676D01*
X142716190Y-50167676D02*
X142620952Y-50262914D01*
X142620952Y-50262914D02*
X142525714Y-50310533D01*
D11*
X157387580Y-110998095D02*
X156578057Y-110998095D01*
X156578057Y-110998095D02*
X156482819Y-111045714D01*
X156482819Y-111045714D02*
X156435200Y-111093333D01*
X156435200Y-111093333D02*
X156387580Y-111188571D01*
X156387580Y-111188571D02*
X156387580Y-111379047D01*
X156387580Y-111379047D02*
X156435200Y-111474285D01*
X156435200Y-111474285D02*
X156482819Y-111521904D01*
X156482819Y-111521904D02*
X156578057Y-111569523D01*
X156578057Y-111569523D02*
X157387580Y-111569523D01*
X156387580Y-112569523D02*
X156387580Y-111998095D01*
X156387580Y-112283809D02*
X157387580Y-112283809D01*
X157387580Y-112283809D02*
X157244723Y-112188571D01*
X157244723Y-112188571D02*
X157149485Y-112093333D01*
X157149485Y-112093333D02*
X157101866Y-111998095D01*
X146066390Y-111428884D02*
X146066390Y-111762217D01*
X145542580Y-111905074D02*
X145542580Y-111428884D01*
X145542580Y-111428884D02*
X146542580Y-111428884D01*
X146542580Y-111428884D02*
X146542580Y-111905074D01*
X145542580Y-112333646D02*
X146542580Y-112333646D01*
X146542580Y-112333646D02*
X145542580Y-112905074D01*
X145542580Y-112905074D02*
X146542580Y-112905074D01*
X149082580Y-110651027D02*
X148082580Y-110984360D01*
X148082580Y-110984360D02*
X149082580Y-111317693D01*
X148082580Y-111651027D02*
X149082580Y-111651027D01*
X148082580Y-112127217D02*
X149082580Y-112127217D01*
X149082580Y-112127217D02*
X148082580Y-112698645D01*
X148082580Y-112698645D02*
X149082580Y-112698645D01*
X154162580Y-109381027D02*
X153162580Y-109714360D01*
X153162580Y-109714360D02*
X154162580Y-110047693D01*
X154162580Y-110571503D02*
X154162580Y-110761979D01*
X154162580Y-110761979D02*
X154114961Y-110857217D01*
X154114961Y-110857217D02*
X154019723Y-110952455D01*
X154019723Y-110952455D02*
X153829247Y-111000074D01*
X153829247Y-111000074D02*
X153495914Y-111000074D01*
X153495914Y-111000074D02*
X153305438Y-110952455D01*
X153305438Y-110952455D02*
X153210200Y-110857217D01*
X153210200Y-110857217D02*
X153162580Y-110761979D01*
X153162580Y-110761979D02*
X153162580Y-110571503D01*
X153162580Y-110571503D02*
X153210200Y-110476265D01*
X153210200Y-110476265D02*
X153305438Y-110381027D01*
X153305438Y-110381027D02*
X153495914Y-110333408D01*
X153495914Y-110333408D02*
X153829247Y-110333408D01*
X153829247Y-110333408D02*
X154019723Y-110381027D01*
X154019723Y-110381027D02*
X154114961Y-110476265D01*
X154114961Y-110476265D02*
X154162580Y-110571503D01*
X154162580Y-111428646D02*
X153353057Y-111428646D01*
X153353057Y-111428646D02*
X153257819Y-111476265D01*
X153257819Y-111476265D02*
X153210200Y-111523884D01*
X153210200Y-111523884D02*
X153162580Y-111619122D01*
X153162580Y-111619122D02*
X153162580Y-111809598D01*
X153162580Y-111809598D02*
X153210200Y-111904836D01*
X153210200Y-111904836D02*
X153257819Y-111952455D01*
X153257819Y-111952455D02*
X153353057Y-112000074D01*
X153353057Y-112000074D02*
X154162580Y-112000074D01*
X154162580Y-112333408D02*
X154162580Y-112904836D01*
X153162580Y-112619122D02*
X154162580Y-112619122D01*
X150622580Y-108253884D02*
X151622580Y-108253884D01*
X151622580Y-108253884D02*
X150622580Y-108825312D01*
X150622580Y-108825312D02*
X151622580Y-108825312D01*
X150670200Y-109682455D02*
X150622580Y-109587217D01*
X150622580Y-109587217D02*
X150622580Y-109396741D01*
X150622580Y-109396741D02*
X150670200Y-109301503D01*
X150670200Y-109301503D02*
X150765438Y-109253884D01*
X150765438Y-109253884D02*
X151146390Y-109253884D01*
X151146390Y-109253884D02*
X151241628Y-109301503D01*
X151241628Y-109301503D02*
X151289247Y-109396741D01*
X151289247Y-109396741D02*
X151289247Y-109587217D01*
X151289247Y-109587217D02*
X151241628Y-109682455D01*
X151241628Y-109682455D02*
X151146390Y-109730074D01*
X151146390Y-109730074D02*
X151051152Y-109730074D01*
X151051152Y-109730074D02*
X150955914Y-109253884D01*
X151289247Y-110587217D02*
X150479723Y-110587217D01*
X150479723Y-110587217D02*
X150384485Y-110539598D01*
X150384485Y-110539598D02*
X150336866Y-110491979D01*
X150336866Y-110491979D02*
X150289247Y-110396741D01*
X150289247Y-110396741D02*
X150289247Y-110253884D01*
X150289247Y-110253884D02*
X150336866Y-110158646D01*
X150670200Y-110587217D02*
X150622580Y-110491979D01*
X150622580Y-110491979D02*
X150622580Y-110301503D01*
X150622580Y-110301503D02*
X150670200Y-110206265D01*
X150670200Y-110206265D02*
X150717819Y-110158646D01*
X150717819Y-110158646D02*
X150813057Y-110111027D01*
X150813057Y-110111027D02*
X151098771Y-110111027D01*
X151098771Y-110111027D02*
X151194009Y-110158646D01*
X151194009Y-110158646D02*
X151241628Y-110206265D01*
X151241628Y-110206265D02*
X151289247Y-110301503D01*
X151289247Y-110301503D02*
X151289247Y-110491979D01*
X151289247Y-110491979D02*
X151241628Y-110587217D01*
X151003533Y-111825313D02*
X151003533Y-112587218D01*
X179578095Y-50257419D02*
X179578095Y-51066942D01*
X179578095Y-51066942D02*
X179625714Y-51162180D01*
X179625714Y-51162180D02*
X179673333Y-51209800D01*
X179673333Y-51209800D02*
X179768571Y-51257419D01*
X179768571Y-51257419D02*
X179959047Y-51257419D01*
X179959047Y-51257419D02*
X180054285Y-51209800D01*
X180054285Y-51209800D02*
X180101904Y-51162180D01*
X180101904Y-51162180D02*
X180149523Y-51066942D01*
X180149523Y-51066942D02*
X180149523Y-50257419D01*
X181054285Y-50590752D02*
X181054285Y-51257419D01*
X180816190Y-50209800D02*
X180578095Y-50924085D01*
X180578095Y-50924085D02*
X181197142Y-50924085D01*
X185041265Y-61419800D02*
X185184122Y-61467419D01*
X185184122Y-61467419D02*
X185422217Y-61467419D01*
X185422217Y-61467419D02*
X185517455Y-61419800D01*
X185517455Y-61419800D02*
X185565074Y-61372180D01*
X185565074Y-61372180D02*
X185612693Y-61276942D01*
X185612693Y-61276942D02*
X185612693Y-61181704D01*
X185612693Y-61181704D02*
X185565074Y-61086466D01*
X185565074Y-61086466D02*
X185517455Y-61038847D01*
X185517455Y-61038847D02*
X185422217Y-60991228D01*
X185422217Y-60991228D02*
X185231741Y-60943609D01*
X185231741Y-60943609D02*
X185136503Y-60895990D01*
X185136503Y-60895990D02*
X185088884Y-60848371D01*
X185088884Y-60848371D02*
X185041265Y-60753133D01*
X185041265Y-60753133D02*
X185041265Y-60657895D01*
X185041265Y-60657895D02*
X185088884Y-60562657D01*
X185088884Y-60562657D02*
X185136503Y-60515038D01*
X185136503Y-60515038D02*
X185231741Y-60467419D01*
X185231741Y-60467419D02*
X185469836Y-60467419D01*
X185469836Y-60467419D02*
X185612693Y-60515038D01*
X186041265Y-61467419D02*
X186041265Y-60467419D01*
X186041265Y-60467419D02*
X186279360Y-60467419D01*
X186279360Y-60467419D02*
X186422217Y-60515038D01*
X186422217Y-60515038D02*
X186517455Y-60610276D01*
X186517455Y-60610276D02*
X186565074Y-60705514D01*
X186565074Y-60705514D02*
X186612693Y-60895990D01*
X186612693Y-60895990D02*
X186612693Y-61038847D01*
X186612693Y-61038847D02*
X186565074Y-61229323D01*
X186565074Y-61229323D02*
X186517455Y-61324561D01*
X186517455Y-61324561D02*
X186422217Y-61419800D01*
X186422217Y-61419800D02*
X186279360Y-61467419D01*
X186279360Y-61467419D02*
X186041265Y-61467419D01*
X186993646Y-61181704D02*
X187469836Y-61181704D01*
X186898408Y-61467419D02*
X187231741Y-60467419D01*
X187231741Y-60467419D02*
X187565074Y-61467419D01*
X185041265Y-58879800D02*
X185184122Y-58927419D01*
X185184122Y-58927419D02*
X185422217Y-58927419D01*
X185422217Y-58927419D02*
X185517455Y-58879800D01*
X185517455Y-58879800D02*
X185565074Y-58832180D01*
X185565074Y-58832180D02*
X185612693Y-58736942D01*
X185612693Y-58736942D02*
X185612693Y-58641704D01*
X185612693Y-58641704D02*
X185565074Y-58546466D01*
X185565074Y-58546466D02*
X185517455Y-58498847D01*
X185517455Y-58498847D02*
X185422217Y-58451228D01*
X185422217Y-58451228D02*
X185231741Y-58403609D01*
X185231741Y-58403609D02*
X185136503Y-58355990D01*
X185136503Y-58355990D02*
X185088884Y-58308371D01*
X185088884Y-58308371D02*
X185041265Y-58213133D01*
X185041265Y-58213133D02*
X185041265Y-58117895D01*
X185041265Y-58117895D02*
X185088884Y-58022657D01*
X185088884Y-58022657D02*
X185136503Y-57975038D01*
X185136503Y-57975038D02*
X185231741Y-57927419D01*
X185231741Y-57927419D02*
X185469836Y-57927419D01*
X185469836Y-57927419D02*
X185612693Y-57975038D01*
X186612693Y-58832180D02*
X186565074Y-58879800D01*
X186565074Y-58879800D02*
X186422217Y-58927419D01*
X186422217Y-58927419D02*
X186326979Y-58927419D01*
X186326979Y-58927419D02*
X186184122Y-58879800D01*
X186184122Y-58879800D02*
X186088884Y-58784561D01*
X186088884Y-58784561D02*
X186041265Y-58689323D01*
X186041265Y-58689323D02*
X185993646Y-58498847D01*
X185993646Y-58498847D02*
X185993646Y-58355990D01*
X185993646Y-58355990D02*
X186041265Y-58165514D01*
X186041265Y-58165514D02*
X186088884Y-58070276D01*
X186088884Y-58070276D02*
X186184122Y-57975038D01*
X186184122Y-57975038D02*
X186326979Y-57927419D01*
X186326979Y-57927419D02*
X186422217Y-57927419D01*
X186422217Y-57927419D02*
X186565074Y-57975038D01*
X186565074Y-57975038D02*
X186612693Y-58022657D01*
X187517455Y-58927419D02*
X187041265Y-58927419D01*
X187041265Y-58927419D02*
X187041265Y-57927419D01*
X184946027Y-52847419D02*
X185279360Y-53847419D01*
X185279360Y-53847419D02*
X185612693Y-52847419D01*
X185946027Y-53847419D02*
X185946027Y-52847419D01*
X186422217Y-53847419D02*
X186422217Y-52847419D01*
X186422217Y-52847419D02*
X186993645Y-53847419D01*
X186993645Y-53847419D02*
X186993645Y-52847419D01*
X185612693Y-55435038D02*
X185517455Y-55387419D01*
X185517455Y-55387419D02*
X185374598Y-55387419D01*
X185374598Y-55387419D02*
X185231741Y-55435038D01*
X185231741Y-55435038D02*
X185136503Y-55530276D01*
X185136503Y-55530276D02*
X185088884Y-55625514D01*
X185088884Y-55625514D02*
X185041265Y-55815990D01*
X185041265Y-55815990D02*
X185041265Y-55958847D01*
X185041265Y-55958847D02*
X185088884Y-56149323D01*
X185088884Y-56149323D02*
X185136503Y-56244561D01*
X185136503Y-56244561D02*
X185231741Y-56339800D01*
X185231741Y-56339800D02*
X185374598Y-56387419D01*
X185374598Y-56387419D02*
X185469836Y-56387419D01*
X185469836Y-56387419D02*
X185612693Y-56339800D01*
X185612693Y-56339800D02*
X185660312Y-56292180D01*
X185660312Y-56292180D02*
X185660312Y-55958847D01*
X185660312Y-55958847D02*
X185469836Y-55958847D01*
X186088884Y-56387419D02*
X186088884Y-55387419D01*
X186088884Y-55387419D02*
X186660312Y-56387419D01*
X186660312Y-56387419D02*
X186660312Y-55387419D01*
X187136503Y-56387419D02*
X187136503Y-55387419D01*
X187136503Y-55387419D02*
X187374598Y-55387419D01*
X187374598Y-55387419D02*
X187517455Y-55435038D01*
X187517455Y-55435038D02*
X187612693Y-55530276D01*
X187612693Y-55530276D02*
X187660312Y-55625514D01*
X187660312Y-55625514D02*
X187707931Y-55815990D01*
X187707931Y-55815990D02*
X187707931Y-55958847D01*
X187707931Y-55958847D02*
X187660312Y-56149323D01*
X187660312Y-56149323D02*
X187612693Y-56244561D01*
X187612693Y-56244561D02*
X187517455Y-56339800D01*
X187517455Y-56339800D02*
X187374598Y-56387419D01*
X187374598Y-56387419D02*
X187136503Y-56387419D01*
D13*
%TO.C,U2*%
X165020120Y-64770000D02*
X184150000Y-64770000D01*
X165020120Y-69850000D02*
X165020120Y-64770000D01*
X184150000Y-69850000D02*
X184150000Y-64770000D01*
D11*
X158750000Y-69850000D02*
X189230000Y-69850000D01*
X189230000Y-69850000D02*
X189230000Y-110490000D01*
X189230000Y-110490000D02*
X158750000Y-110490000D01*
X158750000Y-110490000D02*
X158750000Y-69850000D01*
D13*
%TO.C,R2*%
X151360000Y-82550000D02*
X150590000Y-82550000D01*
X143280000Y-82550000D02*
X144050000Y-82550000D01*
X144050000Y-81180000D02*
X144050000Y-83920000D01*
X150590000Y-83920000D02*
X150590000Y-81180000D01*
X144050000Y-83920000D02*
X150590000Y-83920000D01*
X150590000Y-81180000D02*
X144050000Y-81180000D01*
%TO.C,R1*%
X147550000Y-88900000D02*
X146780000Y-88900000D01*
X139470000Y-88900000D02*
X140240000Y-88900000D01*
X140240000Y-87530000D02*
X140240000Y-90270000D01*
X146780000Y-90270000D02*
X146780000Y-87530000D01*
X140240000Y-90270000D02*
X146780000Y-90270000D01*
X146780000Y-87530000D02*
X140240000Y-87530000D01*
D11*
%TO.C,M1*%
X133985000Y-51435000D02*
X149860000Y-51435000D01*
X149860000Y-51435000D02*
X149860000Y-78105000D01*
X149860000Y-78105000D02*
X133985000Y-78105000D01*
X133985000Y-78105000D02*
X133985000Y-51435000D01*
%TO.C,U1*%
X155575000Y-115570000D02*
X144145000Y-115570000D01*
X144145000Y-115570000D02*
X144145000Y-94615000D01*
X144145000Y-94615000D02*
X155575000Y-94615000D01*
X155575000Y-94615000D02*
X155575000Y-115570000D01*
%TO.C,U4*%
X190500000Y-51435000D02*
X169545000Y-51435000D01*
X169545000Y-51435000D02*
X169545000Y-62865000D01*
X169545000Y-62865000D02*
X190500000Y-62865000D01*
X190500000Y-62865000D02*
X190500000Y-51435000D01*
%TD*%
M02*
