M48
; DRILL file {KiCad 7.0.7} date 2023 November 02, Thursday 18:32:47
; FORMAT={-:-/ absolute / inch / decimal}
; #@! TF.CreationDate,2023-11-02T18:32:47-06:00
; #@! TF.GenerationSoftware,Kicad,Pcbnew,7.0.7
; #@! TF.FileFunction,Plated,1,2,PTH
FMAT,2
INCH
; #@! TA.AperFunction,Plated,PTH,ViaDrill
T1C0.0157
; #@! TA.AperFunction,Plated,PTH,ComponentDrill
T2C0.0315
; #@! TA.AperFunction,Plated,PTH,ComponentDrill
T3C0.0394
%
G90
G05
T1
X5.55Y-4.2
X5.6Y-4.2
T2
X5.45Y-3.5
X5.6Y-3.25
X5.85Y-3.5
X6.0Y-3.25
X6.35Y-2.85
X6.35Y-2.95
X6.35Y-3.05
X6.35Y-3.15
X6.35Y-3.25
X6.35Y-3.35
X6.35Y-3.45
X6.35Y-3.55
X6.35Y-3.65
X6.35Y-3.75
X6.35Y-3.85
X6.35Y-3.95
X6.35Y-4.05
X6.35Y-4.15
X6.35Y-4.25
X7.35Y-2.85
X7.35Y-2.95
X7.35Y-3.05
X7.35Y-3.15
X7.35Y-3.25
X7.35Y-3.35
X7.35Y-3.45
X7.35Y-3.55
X7.35Y-3.65
X7.35Y-3.75
X7.35Y-3.85
X7.35Y-3.95
X7.35Y-4.05
X7.35Y-4.15
X7.35Y-4.25
T3
X5.35Y-2.1
X5.35Y-2.2
X5.35Y-2.3
X5.35Y-2.4
X5.35Y-2.5
X5.35Y-2.6
X5.35Y-2.7
X5.35Y-2.8
X5.35Y-2.9
X5.35Y-3.0
X5.45Y-4.0
X5.45Y-4.1
X5.45Y-4.2
X5.45Y-4.3
X5.75Y-4.5
X5.85Y-4.5
X5.95Y-4.5
X6.05Y-2.1
X6.05Y-4.5
X6.15Y-2.1
X6.25Y-2.1
X6.35Y-2.1
X6.45Y-2.1
X6.55Y-2.1
X7.45Y-2.1
X7.45Y-2.2
X7.45Y-2.3
X7.45Y-2.4
T0
M30
