%TF.GenerationSoftware,KiCad,Pcbnew,7.0.7*%
%TF.CreationDate,2023-11-02T18:32:29-06:00*%
%TF.ProjectId,BatteryMeter,42617474-6572-4794-9d65-7465722e6b69,rev?*%
%TF.SameCoordinates,Original*%
%TF.FileFunction,Copper,L1,Top*%
%TF.FilePolarity,Positive*%
%FSLAX46Y46*%
G04 Gerber Fmt 4.6, Leading zero omitted, Abs format (unit mm)*
G04 Created by KiCad (PCBNEW 7.0.7) date 2023-11-02 18:32:29*
%MOMM*%
%LPD*%
G01*
G04 APERTURE LIST*
%TA.AperFunction,ComponentPad*%
%ADD10R,2.000000X2.000000*%
%TD*%
%TA.AperFunction,ComponentPad*%
%ADD11C,2.000000*%
%TD*%
%TA.AperFunction,ComponentPad*%
%ADD12O,2.000000X1.200000*%
%TD*%
%TA.AperFunction,ComponentPad*%
%ADD13C,1.600000*%
%TD*%
%TA.AperFunction,ComponentPad*%
%ADD14O,1.600000X1.600000*%
%TD*%
%TA.AperFunction,ComponentPad*%
%ADD15R,1.700000X1.700000*%
%TD*%
%TA.AperFunction,ComponentPad*%
%ADD16O,1.700000X1.700000*%
%TD*%
%TA.AperFunction,ViaPad*%
%ADD17C,0.800000*%
%TD*%
%TA.AperFunction,Conductor*%
%ADD18C,0.250000*%
%TD*%
%TA.AperFunction,Conductor*%
%ADD19C,1.270000*%
%TD*%
G04 APERTURE END LIST*
D10*
%TO.P,U3,1,VCC*%
%TO.N,+3V3*%
X153670000Y-53340000D03*
D11*
%TO.P,U3,2,GND*%
%TO.N,GND*%
X156210000Y-53340000D03*
%TO.P,U3,3,SCL*%
%TO.N,SCL*%
X158750000Y-53340000D03*
%TO.P,U3,4,SDA*%
%TO.N,SDA*%
X161290000Y-53340000D03*
%TO.P,U3,5,CSB*%
%TO.N,unconnected-(U3-CSB-Pad5)*%
X163830000Y-53340000D03*
%TO.P,U3,6,SDO*%
%TO.N,unconnected-(U3-SDO-Pad6)*%
X166370000Y-53340000D03*
%TD*%
D12*
%TO.P,U2,1,EN*%
%TO.N,unconnected-(U2-EN-Pad1)*%
X161290000Y-72390000D03*
%TO.P,U2,2,GPIO_36*%
%TO.N,unconnected-(U2-GPIO_36-Pad2)*%
X161290000Y-74930000D03*
%TO.P,U2,3,GPIO_39*%
%TO.N,unconnected-(U2-GPIO_39-Pad3)*%
X161290000Y-77470000D03*
%TO.P,U2,4,GPIO_34*%
%TO.N,unconnected-(U2-GPIO_34-Pad4)*%
X161290000Y-80010000D03*
%TO.P,U2,5,GPIO_35*%
%TO.N,unconnected-(U2-GPIO_35-Pad5)*%
X161290000Y-82550000D03*
%TO.P,U2,6,GPIO_32*%
%TO.N,unconnected-(U2-GPIO_32-Pad6)*%
X161290000Y-85090000D03*
%TO.P,U2,7,GPIO_33*%
%TO.N,unconnected-(U2-GPIO_33-Pad7)*%
X161290000Y-87630000D03*
%TO.P,U2,8,GPIO_25*%
%TO.N,unconnected-(U2-GPIO_25-Pad8)*%
X161290000Y-90170000D03*
%TO.P,U2,9,GPIO_26*%
%TO.N,unconnected-(U2-GPIO_26-Pad9)*%
X161290000Y-92710000D03*
%TO.P,U2,10,GPIO_27*%
%TO.N,unconnected-(U2-GPIO_27-Pad10)*%
X161290000Y-95250000D03*
%TO.P,U2,11,GPIO_14*%
%TO.N,unconnected-(U2-GPIO_14-Pad11)*%
X161290000Y-97790000D03*
%TO.P,U2,12,GPIO_12*%
%TO.N,unconnected-(U2-GPIO_12-Pad12)*%
X161290000Y-100330000D03*
%TO.P,U2,13,GPIO_13*%
%TO.N,unconnected-(U2-GPIO_13-Pad13)*%
X161290000Y-102870000D03*
%TO.P,U2,14,GND*%
%TO.N,GND*%
X161290000Y-105410000D03*
%TO.P,U2,15,VIN*%
%TO.N,+5V*%
X161290000Y-107950000D03*
%TO.P,U2,16,3V3*%
%TO.N,+3V3*%
X186690000Y-107950000D03*
%TO.P,U2,17,GND*%
%TO.N,GND*%
X186690000Y-105410000D03*
%TO.P,U2,18,GPIO_15*%
%TO.N,unconnected-(U2-GPIO_15-Pad18)*%
X186690000Y-102870000D03*
%TO.P,U2,19,GPIO_2*%
%TO.N,unconnected-(U2-GPIO_2-Pad19)*%
X186690000Y-100330000D03*
%TO.P,U2,20,GPIO_4*%
%TO.N,unconnected-(U2-GPIO_4-Pad20)*%
X186690000Y-97790000D03*
%TO.P,U2,21,GPIO_16*%
%TO.N,unconnected-(U2-GPIO_16-Pad21)*%
X186690000Y-95250000D03*
%TO.P,U2,22,GPIO_17*%
%TO.N,unconnected-(U2-GPIO_17-Pad22)*%
X186690000Y-92710000D03*
%TO.P,U2,23,GPIO_5*%
%TO.N,unconnected-(U2-GPIO_5-Pad23)*%
X186690000Y-90170000D03*
%TO.P,U2,24,GPIO_18*%
%TO.N,unconnected-(U2-GPIO_18-Pad24)*%
X186690000Y-87630000D03*
%TO.P,U2,25,GPIO_19*%
%TO.N,unconnected-(U2-GPIO_19-Pad25)*%
X186690000Y-85090000D03*
%TO.P,U2,26,GPIO_21*%
%TO.N,SDA*%
X186690000Y-82550000D03*
%TO.P,U2,27,GPIO_1*%
%TO.N,unconnected-(U2-GPIO_1-Pad27)*%
X186690000Y-80010000D03*
%TO.P,U2,28,GPIO_3*%
%TO.N,unconnected-(U2-GPIO_3-Pad28)*%
X186690000Y-77470000D03*
%TO.P,U2,29,GPIO_22*%
%TO.N,SCL*%
X186690000Y-74930000D03*
%TO.P,U2,30,GPIO_23*%
%TO.N,unconnected-(U2-GPIO_23-Pad30)*%
X186690000Y-72390000D03*
%TD*%
D13*
%TO.P,J1,1,Pin_1*%
%TO.N,+12V*%
X138430000Y-109220000D03*
%TO.P,J1,2,Pin_2*%
%TO.N,GND*%
X138430000Y-106680000D03*
%TO.P,J1,3,Pin_3*%
%TO.N,Shunt High*%
X138430000Y-104140000D03*
%TO.P,J1,4,Pin_4*%
%TO.N,Shunt Low*%
X138430000Y-101600000D03*
%TD*%
%TO.P,R2,1*%
%TO.N,Net-(M1-A0)*%
X142240000Y-82550000D03*
D14*
%TO.P,R2,2*%
%TO.N,GND*%
X152400000Y-82550000D03*
%TD*%
D13*
%TO.P,R1,1*%
%TO.N,+12V*%
X138430000Y-88900000D03*
D14*
%TO.P,R1,2*%
%TO.N,Net-(M1-A0)*%
X148590000Y-88900000D03*
%TD*%
D15*
%TO.P,M1,1,VDD*%
%TO.N,+5V*%
X135890000Y-53340000D03*
D16*
%TO.P,M1,2,GND*%
%TO.N,GND*%
X135890000Y-55880000D03*
%TO.P,M1,3,SCL*%
%TO.N,SCL*%
X135890000Y-58420000D03*
%TO.P,M1,4,SDA*%
%TO.N,SDA*%
X135890000Y-60960000D03*
%TO.P,M1,5,ADDR*%
%TO.N,GND*%
X135890000Y-63500000D03*
%TO.P,M1,6,ALERT*%
%TO.N,unconnected-(M1-ALERT-Pad6)*%
X135890000Y-66040000D03*
%TO.P,M1,7,A0*%
%TO.N,Net-(M1-A0)*%
X135890000Y-68580000D03*
%TO.P,M1,8,A1*%
%TO.N,unconnected-(M1-A1-Pad8)*%
X135890000Y-71120000D03*
%TO.P,M1,9,A2*%
%TO.N,Shunt High*%
X135890000Y-73660000D03*
%TO.P,M1,10,A3*%
%TO.N,Shunt Low*%
X135890000Y-76200000D03*
%TD*%
D13*
%TO.P,U1,1,Out+*%
%TO.N,+5V*%
X153670000Y-114300000D03*
%TO.P,U1,2,Negative*%
%TO.N,GND*%
X151130000Y-114300000D03*
%TO.P,U1,3,In+*%
%TO.N,+12V*%
X148590000Y-114300000D03*
%TO.P,U1,4,Enable*%
%TO.N,unconnected-(U1-Enable-Pad4)*%
X146050000Y-114300000D03*
%TD*%
%TO.P,U4,1,VIN*%
%TO.N,+3V3*%
X189230000Y-53340000D03*
%TO.P,U4,2,GND*%
%TO.N,GND*%
X189230000Y-55880000D03*
%TO.P,U4,3,SCL*%
%TO.N,SCL*%
X189230000Y-58420000D03*
%TO.P,U4,4,SDA*%
%TO.N,SDA*%
X189230000Y-60960000D03*
%TD*%
D17*
%TO.N,GND*%
X142240000Y-106680000D03*
X140970000Y-106680000D03*
%TD*%
D18*
%TO.N,Net-(M1-A0)*%
X142240000Y-82550000D02*
X142240000Y-74930000D01*
X142240000Y-74930000D02*
X135890000Y-68580000D01*
D19*
%TO.N,GND*%
X138430000Y-106680000D02*
X142240000Y-106680000D01*
%TO.N,+3V3*%
X189230000Y-53340000D02*
X185530604Y-53340000D01*
X185530604Y-53340000D02*
X165100000Y-73770604D01*
X186690000Y-107950000D02*
X165100000Y-86360000D01*
X165100000Y-73770604D02*
X153670000Y-62340604D01*
X153670000Y-62340604D02*
X153670000Y-53340000D01*
X165100000Y-86360000D02*
X165100000Y-73770604D01*
D18*
%TO.N,Shunt High*%
X138430000Y-104140000D02*
X134715000Y-100425000D01*
X134715000Y-100425000D02*
X134715000Y-74835000D01*
X134715000Y-74835000D02*
X135890000Y-73660000D01*
D19*
%TO.N,+12V*%
X143510000Y-109220000D02*
X148590000Y-114300000D01*
X138430000Y-109220000D02*
X143510000Y-109220000D01*
D18*
%TO.N,Shunt Low*%
X138430000Y-101600000D02*
X135890000Y-99060000D01*
X135890000Y-99060000D02*
X135890000Y-76200000D01*
D19*
%TO.N,+12V*%
X148590000Y-114300000D02*
X148590000Y-99060000D01*
X148590000Y-99060000D02*
X138430000Y-88900000D01*
D18*
%TO.N,+5V*%
X161290000Y-107950000D02*
X149715000Y-96375000D01*
D19*
X161290000Y-111760000D02*
X161290000Y-107950000D01*
X153670000Y-114300000D02*
X158750000Y-114300000D01*
D18*
X149715000Y-67165000D02*
X135890000Y-53340000D01*
D19*
X158750000Y-114300000D02*
X161290000Y-111760000D01*
D18*
X149715000Y-96375000D02*
X149715000Y-67165000D01*
D19*
%TO.N,Net-(M1-A0)*%
X148590000Y-88900000D02*
X142240000Y-82550000D01*
%TD*%
M02*
